G04 #@! TF.FileFunction,Soldermask,Bot*
%FSLAX46Y46*%
G04 Gerber Fmt 4.6, Leading zero omitted, Abs format (unit mm)*
G04 Created by KiCad (PCBNEW 4.0.5-e0-6337~49~ubuntu14.04.1) date Mon Feb 13 23:28:40 2017*
%MOMM*%
%LPD*%
G01*
G04 APERTURE LIST*
%ADD10C,0.150000*%
%ADD11R,1.600000X1.000000*%
%ADD12R,1.250000X1.000000*%
%ADD13R,1.000000X1.250000*%
%ADD14R,1.000000X1.600000*%
%ADD15C,1.000000*%
%ADD16R,1.350000X1.350000*%
%ADD17C,1.350000*%
%ADD18R,1.850000X1.850000*%
%ADD19C,1.850000*%
%ADD20O,0.950000X1.250000*%
%ADD21O,1.550000X1.000000*%
%ADD22R,0.700000X1.300000*%
%ADD23R,1.300000X0.700000*%
%ADD24R,0.800100X0.800100*%
%ADD25R,0.650000X1.060000*%
%ADD26R,1.600000X0.550000*%
%ADD27R,0.550000X1.600000*%
%ADD28R,0.450000X1.450000*%
%ADD29R,1.200000X1.400000*%
%ADD30R,1.300480X1.699260*%
%ADD31R,0.508000X1.143000*%
%ADD32R,1.699260X1.300480*%
%ADD33C,2.100000*%
%ADD34C,1.750000*%
%ADD35R,1.700000X1.700000*%
%ADD36O,1.700000X1.700000*%
%ADD37R,4.064000X1.524000*%
G04 APERTURE END LIST*
D10*
D11*
X127304800Y-101626800D03*
X127304800Y-98626800D03*
D12*
X147370800Y-91030300D03*
X147370800Y-89030300D03*
D13*
X148243800Y-102158800D03*
X146243800Y-102158800D03*
D12*
X149593300Y-89030300D03*
X149593300Y-91030300D03*
X135051800Y-84712300D03*
X135051800Y-86712300D03*
D13*
X129733800Y-94919800D03*
X131733800Y-94919800D03*
X131733800Y-88696800D03*
X129733800Y-88696800D03*
X129828800Y-84823300D03*
X127828800Y-84823300D03*
X157387800Y-86029800D03*
X155387800Y-86029800D03*
D12*
X129717800Y-101634800D03*
X129717800Y-99634800D03*
D13*
X157895800Y-92252800D03*
X155895800Y-92252800D03*
X180279800Y-107873800D03*
X182279800Y-107873800D03*
X173675800Y-107619800D03*
X175675800Y-107619800D03*
D12*
X133527800Y-94713300D03*
X133527800Y-92713300D03*
D13*
X157387800Y-84124800D03*
X155387800Y-84124800D03*
D14*
X133821300Y-97459800D03*
X130821300Y-97459800D03*
D13*
X125002800Y-96824800D03*
X123002800Y-96824800D03*
D12*
X127177800Y-95919800D03*
X127177800Y-93919800D03*
X140639800Y-86521800D03*
X140639800Y-84521800D03*
D13*
X126082300Y-84823300D03*
X124082300Y-84823300D03*
D12*
X140703300Y-101476300D03*
X140703300Y-103476300D03*
D15*
X176731800Y-120383300D03*
X179731800Y-120383300D03*
D16*
X145846800Y-86283800D03*
D17*
X147846800Y-86283800D03*
X149846800Y-86283800D03*
X145846800Y-84283800D03*
X147846800Y-84283800D03*
X149846800Y-84283800D03*
D18*
X181279800Y-109969300D03*
D19*
X181279800Y-112469300D03*
D20*
X178891760Y-104977200D03*
X178891760Y-99977200D03*
D21*
X181591760Y-105977200D03*
X181591760Y-98977200D03*
D22*
X138668800Y-84696300D03*
X136768800Y-84696300D03*
X131434800Y-84823300D03*
X133334800Y-84823300D03*
X129733000Y-86779100D03*
X131633000Y-86779100D03*
X153151800Y-102158800D03*
X155051800Y-102158800D03*
X166309000Y-94589600D03*
X168209000Y-94589600D03*
X173535300Y-105714800D03*
X175435300Y-105714800D03*
D23*
X174675800Y-113908800D03*
X174675800Y-115808800D03*
X159689800Y-88381800D03*
X159689800Y-90281800D03*
X176301400Y-99176800D03*
X176301400Y-101076800D03*
X174218600Y-101127600D03*
X174218600Y-99227600D03*
D24*
X131625300Y-99634040D03*
X133525300Y-99634040D03*
X132575300Y-101633020D03*
D25*
X157718800Y-90304800D03*
X156768800Y-90304800D03*
X155818800Y-90304800D03*
X155818800Y-88104800D03*
X157718800Y-88104800D03*
D26*
X136008800Y-95814800D03*
X136008800Y-95014800D03*
X136008800Y-94214800D03*
X136008800Y-93414800D03*
X136008800Y-92614800D03*
X136008800Y-91814800D03*
X136008800Y-91014800D03*
X136008800Y-90214800D03*
D27*
X137458800Y-88764800D03*
X138258800Y-88764800D03*
X139058800Y-88764800D03*
X139858800Y-88764800D03*
X140658800Y-88764800D03*
X141458800Y-88764800D03*
X142258800Y-88764800D03*
X143058800Y-88764800D03*
D26*
X144508800Y-90214800D03*
X144508800Y-91014800D03*
X144508800Y-91814800D03*
X144508800Y-92614800D03*
X144508800Y-93414800D03*
X144508800Y-94214800D03*
X144508800Y-95014800D03*
X144508800Y-95814800D03*
D27*
X143058800Y-97264800D03*
X142258800Y-97264800D03*
X141458800Y-97264800D03*
X140658800Y-97264800D03*
X139858800Y-97264800D03*
X139058800Y-97264800D03*
X138258800Y-97264800D03*
X137458800Y-97264800D03*
D25*
X175625800Y-112148800D03*
X174675800Y-112148800D03*
X173725800Y-112148800D03*
X173725800Y-109948800D03*
X175625800Y-109948800D03*
X174675800Y-109948800D03*
D28*
X179079800Y-114125800D03*
X178429800Y-114125800D03*
X177779800Y-114125800D03*
X177129800Y-114125800D03*
X177129800Y-108225800D03*
X177779800Y-108225800D03*
X178429800Y-108225800D03*
X179079800Y-108225800D03*
D29*
X131660800Y-90708300D03*
X131660800Y-92908300D03*
X130060800Y-90708300D03*
X130060800Y-92908300D03*
D30*
X173504860Y-88188800D03*
X170004740Y-88188800D03*
X134825740Y-101079300D03*
X138325860Y-101079300D03*
D22*
X136387800Y-103428800D03*
X138287800Y-103428800D03*
D12*
X152768300Y-91030300D03*
X152768300Y-89030300D03*
X147116800Y-95951800D03*
X147116800Y-97951800D03*
D22*
X149849800Y-102158800D03*
X151749800Y-102158800D03*
D31*
X152768300Y-93649800D03*
X151498300Y-93649800D03*
X150228300Y-93649800D03*
X148958300Y-93649800D03*
X148958300Y-99999800D03*
X150228300Y-99999800D03*
X151498300Y-99999800D03*
X152768300Y-99999800D03*
D12*
X170256200Y-110099600D03*
X170256200Y-112099600D03*
X160502600Y-110778800D03*
X160502600Y-108778800D03*
D11*
X162636200Y-108278800D03*
X162636200Y-111278800D03*
D32*
X167182800Y-115211860D03*
X167182800Y-111711740D03*
D30*
X153565860Y-104952800D03*
X150065740Y-104952800D03*
D32*
X157657800Y-104823260D03*
X157657800Y-101323140D03*
D24*
X119136200Y-119313960D03*
X117236200Y-119313960D03*
X118186200Y-117314980D03*
D22*
X162549800Y-105079800D03*
X164449800Y-105079800D03*
X118933000Y-115316000D03*
X117033000Y-115316000D03*
D23*
X158419800Y-110728800D03*
X158419800Y-108828800D03*
D22*
X146243000Y-104597200D03*
X148143000Y-104597200D03*
D33*
X118237800Y-84333800D03*
D34*
X115747800Y-85593800D03*
X115747800Y-90093800D03*
D33*
X118237800Y-91343800D03*
D23*
X170154600Y-106085600D03*
X170154600Y-107985600D03*
D32*
X157403800Y-113210340D03*
X157403800Y-116710460D03*
D35*
X162179000Y-100533200D03*
D36*
X164719000Y-100533200D03*
X167259000Y-100533200D03*
D37*
X115214400Y-104482900D03*
X115214400Y-109562900D03*
M02*
