M48
;DRILL file {KiCad 4.0.5-e0-6337~49~ubuntu14.04.1} date Mon Feb 13 19:11:35 2017
;FORMAT={-:-/ absolute / inch / decimal}
FMAT,2
INCH,TZ
T1C0.014
T2C0.020
T3C0.022
T4C0.031
T5C0.035
T6C0.039
T7C0.039
T8C0.051
%
G90
G05
M72
T1
X4.527Y-4.462
X4.602Y-4.583
X4.614Y-4.647
X4.617Y-4.742
X4.667Y-3.872
X4.743Y-3.676
X4.747Y-3.872
X4.769Y-3.956
X4.787Y-4.072
X4.787Y-4.162
X4.787Y-4.232
X4.787Y-4.302
X4.787Y-4.372
X4.787Y-4.452
X4.789Y-3.812
X4.793Y-3.464
X4.817Y-3.892
X4.88Y-3.555
X4.995Y-3.832
X4.995Y-4.164
X5.007Y-3.636
X5.017Y-4.282
X5.017Y-4.352
X5.017Y-4.422
X5.017Y-4.492
X5.0475Y-4.06
X5.0595Y-3.4175
X5.0595Y-3.4915
X5.0595Y-3.5525
X5.077Y-3.832
X5.101Y-4.252
X5.107Y-4.068
X5.137Y-4.652
X5.207Y-3.842
X5.2295Y-3.4015
X5.235Y-3.474
X5.3081Y-3.9795
X5.309Y-4.164
X5.3126Y-4.6563
X5.325Y-3.86
X5.3465Y-3.46
X5.367Y-4.162
X5.369Y-3.89
X5.397Y-4.568
X5.399Y-3.424
X5.433Y-3.738
X5.4432Y-3.6777
X5.475Y-3.564
X5.505Y-3.716
X5.539Y-4.428
X5.585Y-4.258
X5.587Y-3.292
X5.593Y-3.39
X5.655Y-3.882
X5.677Y-3.992
X5.715Y-3.902
X5.737Y-3.862
X5.737Y-4.212
X5.765Y-4.682
X5.767Y-3.502
X5.776Y-3.677
X5.7955Y-3.762
X5.817Y-3.907
X5.817Y-3.962
X5.8235Y-3.637
X5.839Y-3.824
X5.843Y-3.548
X5.861Y-4.664
X5.865Y-4.126
X5.872Y-4.212
X5.879Y-4.436
X5.913Y-3.826
X5.953Y-3.623
X5.955Y-3.508
X5.9865Y-3.8635
X5.989Y-3.744
X6.01Y-3.3125
X6.055Y-3.28
X6.064Y-4.664
X6.067Y-4.352
X6.084Y-4.308
X6.086Y-4.238
X6.1176Y-3.387
X6.119Y-4.132
X6.122Y-3.3245
X6.123Y-4.586
X6.137Y-4.658
X6.143Y-3.731
X6.151Y-4.008
X6.179Y-3.266
X6.2185Y-3.891
X6.268Y-3.8885
X6.2685Y-3.73
X6.287Y-3.402
X6.295Y-4.658
X6.3005Y-3.65
X6.308Y-4.605
X6.3255Y-3.734
X6.342Y-4.432
X6.399Y-4.2
X6.415Y-4.5415
X6.427Y-3.649
X6.429Y-3.466
X6.429Y-3.5555
X6.457Y-4.692
X6.467Y-4.386
X6.49Y-3.415
X6.495Y-4.236
X6.501Y-4.432
X6.505Y-4.536
X6.511Y-4.136
X6.517Y-4.592
X6.529Y-3.6485
X6.5355Y-3.544
X6.61Y-3.4195
X6.617Y-4.287
X6.627Y-4.692
X6.632Y-4.183
X6.647Y-4.372
X6.697Y-4.532
X6.699Y-3.726
X6.703Y-4.336
X6.705Y-3.914
X6.707Y-4.432
X6.7195Y-3.5545
X6.72Y-3.6535
X6.7295Y-4.604
X6.7545Y-4.0405
X6.755Y-4.172
X6.765Y-4.292
X6.771Y-3.4
X6.779Y-3.904
X6.822Y-4.532
X6.822Y-4.692
X6.831Y-3.396
X6.851Y-4.648
X6.873Y-4.108
X6.937Y-4.522
X6.9645Y-4.117
X6.968Y-4.1895
X6.997Y-4.322
X6.997Y-4.392
X7.001Y-4.668
X7.114Y-4.562
X7.16Y-4.563
X7.16Y-4.623
X7.167Y-3.512
X7.169Y-3.814
T4
X5.742Y-3.3183
X5.742Y-3.397
X5.8207Y-3.3183
X5.8207Y-3.397
X5.8995Y-3.3183
X5.8995Y-3.397
T5
X6.9579Y-4.7395
X7.0761Y-4.7395
X7.137Y-4.3295
X7.137Y-4.4279
T6
X4.557Y-3.3698
X4.557Y-3.547
T7
X6.385Y-3.958
X6.485Y-3.958
X6.585Y-3.958
T8
X4.655Y-3.3202
X4.655Y-3.5962
T2
X7.1621Y-3.8967G85X7.1365Y-3.8967
G05
X7.1621Y-4.1723G85X7.1365Y-4.1723
G05
T3
X7.043Y-3.942G85X7.043Y-3.9302
G05
X7.043Y-4.1389G85X7.043Y-4.1271
G05
T0
M30
