G04 #@! TF.FileFunction,Legend,Top*
%FSLAX46Y46*%
G04 Gerber Fmt 4.6, Leading zero omitted, Abs format (unit mm)*
G04 Created by KiCad (PCBNEW 4.0.5-e0-6337~49~ubuntu14.04.1) date Mon Feb 13 23:28:40 2017*
%MOMM*%
%LPD*%
G01*
G04 APERTURE LIST*
%ADD10C,0.150000*%
%ADD11C,0.120000*%
%ADD12C,0.130000*%
%ADD13C,0.381000*%
%ADD14C,0.125000*%
%ADD15R,1.250000X1.000000*%
%ADD16R,2.500000X1.000000*%
%ADD17R,1.000000X1.250000*%
%ADD18R,1.198880X1.198880*%
%ADD19R,0.800000X1.500000*%
%ADD20R,1.000000X1.000000*%
%ADD21R,1.100000X1.000000*%
%ADD22C,1.000000*%
%ADD23R,1.350000X1.350000*%
%ADD24C,1.350000*%
%ADD25R,1.850000X1.850000*%
%ADD26C,1.850000*%
%ADD27R,1.350000X0.400000*%
%ADD28O,0.950000X1.250000*%
%ADD29O,1.550000X1.000000*%
%ADD30R,0.700000X1.300000*%
%ADD31R,1.300000X0.700000*%
%ADD32R,1.000000X1.500000*%
%ADD33R,1.500000X1.000000*%
%ADD34R,0.600000X1.550000*%
%ADD35R,1.175000X1.175000*%
%ADD36R,1.600000X1.000000*%
%ADD37R,1.000000X1.600000*%
%ADD38C,2.100000*%
%ADD39C,1.750000*%
%ADD40O,2.500000X1.000000*%
%ADD41R,0.749300X0.398780*%
%ADD42R,1.000000X1.050000*%
%ADD43R,1.050000X2.200000*%
%ADD44R,1.700000X1.700000*%
%ADD45O,1.700000X1.700000*%
%ADD46R,4.064000X1.524000*%
%ADD47R,2.200000X2.000000*%
%ADD48R,2.000000X2.200000*%
%ADD49R,7.000000X2.200000*%
%ADD50R,8.400000X2.200000*%
%ADD51R,6.600000X6.500000*%
G04 APERTURE END LIST*
D10*
X161010696Y-102293800D02*
X160915458Y-102246181D01*
X160772601Y-102246181D01*
X160629743Y-102293800D01*
X160534505Y-102389038D01*
X160486886Y-102484276D01*
X160439267Y-102674752D01*
X160439267Y-102817610D01*
X160486886Y-103008086D01*
X160534505Y-103103324D01*
X160629743Y-103198562D01*
X160772601Y-103246181D01*
X160867839Y-103246181D01*
X161010696Y-103198562D01*
X161058315Y-103150943D01*
X161058315Y-102817610D01*
X160867839Y-102817610D01*
X161486886Y-103246181D02*
X161486886Y-102246181D01*
X162058315Y-103246181D01*
X162058315Y-102246181D01*
X162534505Y-103246181D02*
X162534505Y-102246181D01*
X162772600Y-102246181D01*
X162915458Y-102293800D01*
X163010696Y-102389038D01*
X163058315Y-102484276D01*
X163105934Y-102674752D01*
X163105934Y-102817610D01*
X163058315Y-103008086D01*
X163010696Y-103103324D01*
X162915458Y-103198562D01*
X162772600Y-103246181D01*
X162534505Y-103246181D01*
X163804695Y-102271581D02*
X164376124Y-102271581D01*
X164090409Y-103271581D02*
X164090409Y-102271581D01*
X164614219Y-102271581D02*
X165280886Y-103271581D01*
X165280886Y-102271581D02*
X164614219Y-103271581D01*
X167193934Y-103169981D02*
X166860600Y-102693790D01*
X166622505Y-103169981D02*
X166622505Y-102169981D01*
X167003458Y-102169981D01*
X167098696Y-102217600D01*
X167146315Y-102265219D01*
X167193934Y-102360457D01*
X167193934Y-102503314D01*
X167146315Y-102598552D01*
X167098696Y-102646171D01*
X167003458Y-102693790D01*
X166622505Y-102693790D01*
X167527267Y-102169981D02*
X168193934Y-103169981D01*
X168193934Y-102169981D02*
X167527267Y-103169981D01*
X144361800Y-93022800D02*
X144361800Y-94022800D01*
X146061800Y-94022800D02*
X146061800Y-93022800D01*
X144385400Y-119778400D02*
X144385400Y-118778400D01*
X142685400Y-118778400D02*
X142685400Y-119778400D01*
X147956800Y-119872000D02*
X147956800Y-117872000D01*
X145006800Y-117872000D02*
X145006800Y-119872000D01*
X122376300Y-118406800D02*
X122376300Y-117406800D01*
X120676300Y-117406800D02*
X120676300Y-118406800D01*
X115628800Y-115454800D02*
X116628800Y-115454800D01*
X116628800Y-113754800D02*
X115628800Y-113754800D01*
X115628800Y-112787800D02*
X116628800Y-112787800D01*
X116628800Y-111087800D02*
X115628800Y-111087800D01*
X118834800Y-103754300D02*
X118834800Y-104754300D01*
X120534800Y-104754300D02*
X120534800Y-103754300D01*
X115124800Y-97891800D02*
X115124800Y-100591800D01*
X116624800Y-97891800D02*
X116624800Y-100591800D01*
X115724800Y-99391800D02*
X115974800Y-99391800D01*
X115974800Y-99391800D02*
X115824800Y-99241800D01*
X116224800Y-99141800D02*
X115524800Y-99141800D01*
X115874800Y-99491800D02*
X115874800Y-99841800D01*
X115874800Y-99141800D02*
X116224800Y-99491800D01*
X116224800Y-99491800D02*
X115524800Y-99491800D01*
X115524800Y-99491800D02*
X115874800Y-99141800D01*
X182791800Y-97408800D02*
X182791800Y-94708800D01*
X181291800Y-97408800D02*
X181291800Y-94708800D01*
X182191800Y-95908800D02*
X181941800Y-95908800D01*
X181941800Y-95908800D02*
X182091800Y-96058800D01*
X181691800Y-96158800D02*
X182391800Y-96158800D01*
X182041800Y-95808800D02*
X182041800Y-95458800D01*
X182041800Y-96158800D02*
X181691800Y-95808800D01*
X181691800Y-95808800D02*
X182391800Y-95808800D01*
X182391800Y-95808800D02*
X182041800Y-96158800D01*
X115124800Y-92938800D02*
X115124800Y-95638800D01*
X116624800Y-92938800D02*
X116624800Y-95638800D01*
X115724800Y-94438800D02*
X115974800Y-94438800D01*
X115974800Y-94438800D02*
X115824800Y-94288800D01*
X116224800Y-94188800D02*
X115524800Y-94188800D01*
X115874800Y-94538800D02*
X115874800Y-94888800D01*
X115874800Y-94188800D02*
X116224800Y-94538800D01*
X116224800Y-94538800D02*
X115524800Y-94538800D01*
X115524800Y-94538800D02*
X115874800Y-94188800D01*
X181291800Y-90271800D02*
X181291800Y-92971800D01*
X182791800Y-90271800D02*
X182791800Y-92971800D01*
X181891800Y-91771800D02*
X182141800Y-91771800D01*
X182141800Y-91771800D02*
X181991800Y-91621800D01*
X182391800Y-91521800D02*
X181691800Y-91521800D01*
X182041800Y-91871800D02*
X182041800Y-92221800D01*
X182041800Y-91521800D02*
X182391800Y-91871800D01*
X182391800Y-91871800D02*
X181691800Y-91871800D01*
X181691800Y-91871800D02*
X182041800Y-91521800D01*
X144775300Y-97674800D02*
X145775300Y-97674800D01*
X145775300Y-95974800D02*
X144775300Y-95974800D01*
X144982300Y-105198800D02*
X144982300Y-104198800D01*
X143282300Y-104198800D02*
X143282300Y-105198800D01*
X144982300Y-109643800D02*
X144982300Y-108643800D01*
X143282300Y-108643800D02*
X143282300Y-109643800D01*
X176631800Y-121683300D02*
X176631800Y-122583300D01*
X176631800Y-122583300D02*
X176731800Y-122683300D01*
X176731800Y-122683300D02*
X177731800Y-122683300D01*
X177731800Y-122683300D02*
X177831800Y-122583300D01*
X177831800Y-122583300D02*
X177831800Y-121683300D01*
X174931800Y-119083300D02*
X181531800Y-119083300D01*
X181531800Y-119083300D02*
X181531800Y-121683300D01*
X181531800Y-121683300D02*
X175031800Y-121683300D01*
X175031800Y-121683300D02*
X174931800Y-121683300D01*
X174931800Y-121683300D02*
X174931800Y-119083300D01*
X120073800Y-115454800D02*
X121073800Y-115454800D01*
X121073800Y-113754800D02*
X120073800Y-113754800D01*
X118834800Y-111310800D02*
X118834800Y-112310800D01*
X120534800Y-112310800D02*
X120534800Y-111310800D01*
X118834800Y-107627800D02*
X118834800Y-108627800D01*
X120534800Y-108627800D02*
X120534800Y-107627800D01*
X146846800Y-87283800D02*
X146846800Y-85283800D01*
X146846800Y-85283800D02*
X144846800Y-85283800D01*
X144846800Y-85283800D02*
X144846800Y-83283800D01*
X144846800Y-83283800D02*
X146846800Y-83283800D01*
X146846800Y-83283800D02*
X150846800Y-83283800D01*
X150846800Y-83283800D02*
X150846800Y-87283800D01*
X150846800Y-87283800D02*
X146846800Y-87283800D01*
X145846800Y-87783800D02*
X144346800Y-87783800D01*
X144346800Y-87783800D02*
X144346800Y-86283800D01*
X183079800Y-107269300D02*
X178879800Y-107269300D01*
X178879800Y-107269300D02*
X178879800Y-115169300D01*
X178879800Y-115169300D02*
X183079800Y-115169300D01*
X183079800Y-115169300D02*
X183079800Y-107269300D01*
X181279800Y-107269300D02*
X181279800Y-107769300D01*
X181279800Y-107769300D02*
X182579800Y-107769300D01*
X182579800Y-107769300D02*
X182579800Y-114669300D01*
X182579800Y-114669300D02*
X181279800Y-114669300D01*
X181279800Y-114669300D02*
X181279800Y-115169300D01*
X180379800Y-107269300D02*
X180379800Y-108269300D01*
X180379800Y-108269300D02*
X178879800Y-108269300D01*
X180379800Y-115169300D02*
X180379800Y-114169300D01*
X180379800Y-114169300D02*
X178879800Y-114169300D01*
X178529800Y-109969300D02*
X177929800Y-109669300D01*
X177929800Y-109669300D02*
X177929800Y-110269300D01*
X177929800Y-110269300D02*
X178529800Y-109969300D01*
X184271760Y-106827200D02*
X184271760Y-98127200D01*
X177866760Y-106827200D02*
X177866760Y-98127200D01*
X177866760Y-98127200D02*
X184271760Y-98127200D01*
X183041760Y-98127200D02*
X183041760Y-106827200D01*
X184271760Y-106827200D02*
X177866760Y-106827200D01*
X149494800Y-89698800D02*
X148294800Y-89698800D01*
X148294800Y-87948800D02*
X149494800Y-87948800D01*
X142812800Y-85105800D02*
X142812800Y-83905800D01*
X144562800Y-83905800D02*
X144562800Y-85105800D01*
X147102800Y-100288800D02*
X147102800Y-101488800D01*
X145352800Y-101488800D02*
X145352800Y-100288800D01*
X143193800Y-101488800D02*
X143193800Y-100288800D01*
X144943800Y-100288800D02*
X144943800Y-101488800D01*
X118068800Y-99632800D02*
X119268800Y-99632800D01*
X119268800Y-101382800D02*
X118068800Y-101382800D01*
X147384800Y-97615300D02*
X147384800Y-96415300D01*
X149134800Y-96415300D02*
X149134800Y-97615300D01*
X175472800Y-114999800D02*
X176672800Y-114999800D01*
X176672800Y-116749800D02*
X175472800Y-116749800D01*
X118068800Y-94679800D02*
X119268800Y-94679800D01*
X119268800Y-96429800D02*
X118068800Y-96429800D01*
X175398800Y-84442300D02*
X175398800Y-97142300D01*
X180998800Y-84442300D02*
X153998800Y-84442300D01*
X153998800Y-84442300D02*
X153998800Y-97142300D01*
X153998800Y-97142300D02*
X180998800Y-97142300D01*
X180998800Y-84442300D02*
X180998800Y-97142300D01*
X173243800Y-112869800D02*
X173293800Y-112869800D01*
X173243800Y-108719800D02*
X173388800Y-108719800D01*
X178393800Y-108719800D02*
X178248800Y-108719800D01*
X178393800Y-112869800D02*
X178248800Y-112869800D01*
X173243800Y-112869800D02*
X173243800Y-108719800D01*
X178393800Y-112869800D02*
X178393800Y-108719800D01*
X173293800Y-112869800D02*
X173293800Y-114269800D01*
X149353300Y-97615300D02*
X149353300Y-96415300D01*
X151103300Y-96415300D02*
X151103300Y-97615300D01*
X171255800Y-112175800D02*
X171255800Y-110175800D01*
X169205800Y-110175800D02*
X169205800Y-112175800D01*
X170492800Y-120026800D02*
X171492800Y-120026800D01*
X171492800Y-118326800D02*
X170492800Y-118326800D01*
X170119800Y-117915800D02*
X172119800Y-117915800D01*
X172119800Y-115865800D02*
X170119800Y-115865800D01*
X116624800Y-119710000D02*
X116624800Y-117010000D01*
X115124800Y-119710000D02*
X115124800Y-117010000D01*
X116024800Y-118210000D02*
X115774800Y-118210000D01*
X115774800Y-118210000D02*
X115924800Y-118360000D01*
X115524800Y-118460000D02*
X116224800Y-118460000D01*
X115874800Y-118110000D02*
X115874800Y-117760000D01*
X115874800Y-118460000D02*
X115524800Y-118110000D01*
X115524800Y-118110000D02*
X116224800Y-118110000D01*
X116224800Y-118110000D02*
X115874800Y-118460000D01*
X114477800Y-91490800D02*
X114477800Y-84193800D01*
X114477800Y-84193800D02*
X117047800Y-84193800D01*
X118777800Y-90093800D02*
X118777800Y-85593800D01*
X114477800Y-91490800D02*
X117047800Y-91490800D01*
X164373979Y-117678200D02*
G75*
G03X164373979Y-117678200I-493179J0D01*
G01*
X168585800Y-103428800D02*
X168585800Y-119430800D01*
X150285800Y-119429800D02*
X150285800Y-103429800D01*
X150285800Y-119429800D02*
X168585800Y-119429800D01*
X150285800Y-103429800D02*
X168585800Y-103429800D01*
X171211800Y-105523000D02*
X170011800Y-105523000D01*
X170011800Y-103773000D02*
X171211800Y-103773000D01*
X170111800Y-108542800D02*
X171161800Y-108542800D01*
X171161800Y-106442800D02*
X170111800Y-106442800D01*
X169451020Y-106161840D02*
X168841420Y-106161840D01*
X168841420Y-106161840D02*
X168831260Y-106593640D01*
X175032300Y-101214300D02*
X175032300Y-102214300D01*
X176732300Y-102214300D02*
X176732300Y-101214300D01*
D11*
X144102200Y-113626000D02*
X145102200Y-113626000D01*
X145102200Y-111926000D02*
X144102200Y-111926000D01*
X144102200Y-115658000D02*
X145102200Y-115658000D01*
X145102200Y-113958000D02*
X144102200Y-113958000D01*
D12*
X146299400Y-108377200D02*
X146299400Y-108477200D01*
X148899400Y-108377200D02*
X148899400Y-108477200D01*
X148899400Y-110977200D02*
X148899400Y-110877200D01*
X146299400Y-110977200D02*
X146299400Y-110877200D01*
X148199400Y-111277200D02*
X148899400Y-110977200D01*
X146299400Y-110977200D02*
X146999400Y-111277200D01*
X146999400Y-108377200D02*
X146299400Y-108377200D01*
X148899400Y-108377200D02*
X148199400Y-108377200D01*
D10*
X148474400Y-113090400D02*
X148474400Y-114290400D01*
X146724400Y-114290400D02*
X146724400Y-113090400D01*
D11*
X163449000Y-101923200D02*
X168649000Y-101923200D01*
X168649000Y-101923200D02*
X168649000Y-99143200D01*
X168649000Y-99143200D02*
X163449000Y-99143200D01*
X163449000Y-99143200D02*
X163449000Y-101923200D01*
X162179000Y-101923200D02*
X160789000Y-101923200D01*
X160789000Y-101923200D02*
X160789000Y-100533200D01*
D13*
X106464100Y-110771940D02*
X106464100Y-103273860D01*
X107213400Y-103273860D02*
X107213400Y-110771940D01*
X107965240Y-110771940D02*
X107965240Y-103273860D01*
X109463840Y-103273860D02*
X109463840Y-110771940D01*
X108714540Y-110771940D02*
X108714540Y-103273860D01*
X105714800Y-103522780D02*
X105714800Y-110523020D01*
X105714800Y-110523020D02*
X106215180Y-110523020D01*
X112214660Y-103022400D02*
X112715040Y-103022400D01*
X112214660Y-111023400D02*
X112715040Y-111023400D01*
X112463580Y-111023400D02*
X112463580Y-103022400D01*
X112214660Y-103022400D02*
X112214660Y-111023400D01*
X112715040Y-109021880D02*
X116715540Y-109021880D01*
X116715540Y-109021880D02*
X116715540Y-110022640D01*
X116715540Y-110022640D02*
X112715040Y-110022640D01*
X112715040Y-106522520D02*
X116715540Y-106522520D01*
X116715540Y-106522520D02*
X116715540Y-107523280D01*
X116715540Y-107523280D02*
X112715040Y-107523280D01*
X112715040Y-104023160D02*
X116715540Y-104023160D01*
X116715540Y-104023160D02*
X116715540Y-105023920D01*
X116715540Y-105023920D02*
X112715040Y-105023920D01*
X105714800Y-103522780D02*
X112715040Y-103522780D01*
X112715040Y-103022400D02*
X112715040Y-111023400D01*
X112715040Y-110523020D02*
X106215180Y-110523020D01*
D10*
X142138800Y-83469800D02*
X142138800Y-119069800D01*
X142138800Y-119069800D02*
X123138800Y-119069800D01*
X123138800Y-119069800D02*
X123138800Y-83469800D01*
X123138800Y-83469800D02*
X142138800Y-83469800D01*
X146950134Y-91720943D02*
X146902515Y-91768562D01*
X146759658Y-91816181D01*
X146664420Y-91816181D01*
X146521562Y-91768562D01*
X146426324Y-91673324D01*
X146378705Y-91578086D01*
X146331086Y-91387610D01*
X146331086Y-91244752D01*
X146378705Y-91054276D01*
X146426324Y-90959038D01*
X146521562Y-90863800D01*
X146664420Y-90816181D01*
X146759658Y-90816181D01*
X146902515Y-90863800D01*
X146950134Y-90911419D01*
X147807277Y-91149514D02*
X147807277Y-91816181D01*
X147569181Y-90768562D02*
X147331086Y-91482848D01*
X147950134Y-91482848D01*
X142266943Y-121089657D02*
X142314562Y-121137276D01*
X142362181Y-121280133D01*
X142362181Y-121375371D01*
X142314562Y-121518229D01*
X142219324Y-121613467D01*
X142124086Y-121661086D01*
X141933610Y-121708705D01*
X141790752Y-121708705D01*
X141600276Y-121661086D01*
X141505038Y-121613467D01*
X141409800Y-121518229D01*
X141362181Y-121375371D01*
X141362181Y-121280133D01*
X141409800Y-121137276D01*
X141457419Y-121089657D01*
X142362181Y-120137276D02*
X142362181Y-120708705D01*
X142362181Y-120422991D02*
X141362181Y-120422991D01*
X141505038Y-120518229D01*
X141600276Y-120613467D01*
X141647895Y-120708705D01*
X141362181Y-119518229D02*
X141362181Y-119422990D01*
X141409800Y-119327752D01*
X141457419Y-119280133D01*
X141552657Y-119232514D01*
X141743133Y-119184895D01*
X141981229Y-119184895D01*
X142171705Y-119232514D01*
X142266943Y-119280133D01*
X142314562Y-119327752D01*
X142362181Y-119422990D01*
X142362181Y-119518229D01*
X142314562Y-119613467D01*
X142266943Y-119661086D01*
X142171705Y-119708705D01*
X141981229Y-119756324D01*
X141743133Y-119756324D01*
X141552657Y-119708705D01*
X141457419Y-119661086D01*
X141409800Y-119613467D01*
X141362181Y-119518229D01*
X149013943Y-120930943D02*
X148966324Y-120978562D01*
X148823467Y-121026181D01*
X148728229Y-121026181D01*
X148585371Y-120978562D01*
X148490133Y-120883324D01*
X148442514Y-120788086D01*
X148394895Y-120597610D01*
X148394895Y-120454752D01*
X148442514Y-120264276D01*
X148490133Y-120169038D01*
X148585371Y-120073800D01*
X148728229Y-120026181D01*
X148823467Y-120026181D01*
X148966324Y-120073800D01*
X149013943Y-120121419D01*
X149966324Y-121026181D02*
X149394895Y-121026181D01*
X149680609Y-121026181D02*
X149680609Y-120026181D01*
X149585371Y-120169038D01*
X149490133Y-120264276D01*
X149394895Y-120311895D01*
X150918705Y-121026181D02*
X150347276Y-121026181D01*
X150632990Y-121026181D02*
X150632990Y-120026181D01*
X150537752Y-120169038D01*
X150442514Y-120264276D01*
X150347276Y-120311895D01*
X120946943Y-120803943D02*
X120899324Y-120851562D01*
X120756467Y-120899181D01*
X120661229Y-120899181D01*
X120518371Y-120851562D01*
X120423133Y-120756324D01*
X120375514Y-120661086D01*
X120327895Y-120470610D01*
X120327895Y-120327752D01*
X120375514Y-120137276D01*
X120423133Y-120042038D01*
X120518371Y-119946800D01*
X120661229Y-119899181D01*
X120756467Y-119899181D01*
X120899324Y-119946800D01*
X120946943Y-119994419D01*
X121899324Y-120899181D02*
X121327895Y-120899181D01*
X121613609Y-120899181D02*
X121613609Y-119899181D01*
X121518371Y-120042038D01*
X121423133Y-120137276D01*
X121327895Y-120184895D01*
X122280276Y-119994419D02*
X122327895Y-119946800D01*
X122423133Y-119899181D01*
X122661229Y-119899181D01*
X122756467Y-119946800D01*
X122804086Y-119994419D01*
X122851705Y-120089657D01*
X122851705Y-120184895D01*
X122804086Y-120327752D01*
X122232657Y-120899181D01*
X122851705Y-120899181D01*
X114199943Y-116136657D02*
X114247562Y-116184276D01*
X114295181Y-116327133D01*
X114295181Y-116422371D01*
X114247562Y-116565229D01*
X114152324Y-116660467D01*
X114057086Y-116708086D01*
X113866610Y-116755705D01*
X113723752Y-116755705D01*
X113533276Y-116708086D01*
X113438038Y-116660467D01*
X113342800Y-116565229D01*
X113295181Y-116422371D01*
X113295181Y-116327133D01*
X113342800Y-116184276D01*
X113390419Y-116136657D01*
X114295181Y-115184276D02*
X114295181Y-115755705D01*
X114295181Y-115469991D02*
X113295181Y-115469991D01*
X113438038Y-115565229D01*
X113533276Y-115660467D01*
X113580895Y-115755705D01*
X113295181Y-114850943D02*
X113295181Y-114231895D01*
X113676133Y-114565229D01*
X113676133Y-114422371D01*
X113723752Y-114327133D01*
X113771371Y-114279514D01*
X113866610Y-114231895D01*
X114104705Y-114231895D01*
X114199943Y-114279514D01*
X114247562Y-114327133D01*
X114295181Y-114422371D01*
X114295181Y-114708086D01*
X114247562Y-114803324D01*
X114199943Y-114850943D01*
X114199943Y-112707657D02*
X114247562Y-112755276D01*
X114295181Y-112898133D01*
X114295181Y-112993371D01*
X114247562Y-113136229D01*
X114152324Y-113231467D01*
X114057086Y-113279086D01*
X113866610Y-113326705D01*
X113723752Y-113326705D01*
X113533276Y-113279086D01*
X113438038Y-113231467D01*
X113342800Y-113136229D01*
X113295181Y-112993371D01*
X113295181Y-112898133D01*
X113342800Y-112755276D01*
X113390419Y-112707657D01*
X114295181Y-111755276D02*
X114295181Y-112326705D01*
X114295181Y-112040991D02*
X113295181Y-112040991D01*
X113438038Y-112136229D01*
X113533276Y-112231467D01*
X113580895Y-112326705D01*
X113628514Y-110898133D02*
X114295181Y-110898133D01*
X113247562Y-111136229D02*
X113961848Y-111374324D01*
X113961848Y-110755276D01*
X118543343Y-104833657D02*
X118590962Y-104881276D01*
X118638581Y-105024133D01*
X118638581Y-105119371D01*
X118590962Y-105262229D01*
X118495724Y-105357467D01*
X118400486Y-105405086D01*
X118210010Y-105452705D01*
X118067152Y-105452705D01*
X117876676Y-105405086D01*
X117781438Y-105357467D01*
X117686200Y-105262229D01*
X117638581Y-105119371D01*
X117638581Y-105024133D01*
X117686200Y-104881276D01*
X117733819Y-104833657D01*
X118638581Y-103881276D02*
X118638581Y-104452705D01*
X118638581Y-104166991D02*
X117638581Y-104166991D01*
X117781438Y-104262229D01*
X117876676Y-104357467D01*
X117924295Y-104452705D01*
X118067152Y-103309848D02*
X118019533Y-103405086D01*
X117971914Y-103452705D01*
X117876676Y-103500324D01*
X117829057Y-103500324D01*
X117733819Y-103452705D01*
X117686200Y-103405086D01*
X117638581Y-103309848D01*
X117638581Y-103119371D01*
X117686200Y-103024133D01*
X117733819Y-102976514D01*
X117829057Y-102928895D01*
X117876676Y-102928895D01*
X117971914Y-102976514D01*
X118019533Y-103024133D01*
X118067152Y-103119371D01*
X118067152Y-103309848D01*
X118114771Y-103405086D01*
X118162390Y-103452705D01*
X118257629Y-103500324D01*
X118448105Y-103500324D01*
X118543343Y-103452705D01*
X118590962Y-103405086D01*
X118638581Y-103309848D01*
X118638581Y-103119371D01*
X118590962Y-103024133D01*
X118543343Y-102976514D01*
X118448105Y-102928895D01*
X118257629Y-102928895D01*
X118162390Y-102976514D01*
X118114771Y-103024133D01*
X118067152Y-103119371D01*
X116276381Y-103023895D02*
X115276381Y-103023895D01*
X115276381Y-102785800D01*
X115324000Y-102642942D01*
X115419238Y-102547704D01*
X115514476Y-102500085D01*
X115704952Y-102452466D01*
X115847810Y-102452466D01*
X116038286Y-102500085D01*
X116133524Y-102547704D01*
X116228762Y-102642942D01*
X116276381Y-102785800D01*
X116276381Y-103023895D01*
X116276381Y-101500085D02*
X116276381Y-102071514D01*
X116276381Y-101785800D02*
X115276381Y-101785800D01*
X115419238Y-101881038D01*
X115514476Y-101976276D01*
X115562095Y-102071514D01*
D14*
X181393353Y-88008590D02*
X181393353Y-87508590D01*
X181512400Y-87508590D01*
X181583829Y-87532400D01*
X181631448Y-87580019D01*
X181655257Y-87627638D01*
X181679067Y-87722876D01*
X181679067Y-87794305D01*
X181655257Y-87889543D01*
X181631448Y-87937162D01*
X181583829Y-87984781D01*
X181512400Y-88008590D01*
X181393353Y-88008590D01*
X181869543Y-87556210D02*
X181893353Y-87532400D01*
X181940972Y-87508590D01*
X182060019Y-87508590D01*
X182107638Y-87532400D01*
X182131448Y-87556210D01*
X182155257Y-87603829D01*
X182155257Y-87651448D01*
X182131448Y-87722876D01*
X181845734Y-88008590D01*
X182155257Y-88008590D01*
D10*
X114701581Y-96597695D02*
X113701581Y-96597695D01*
X113701581Y-96359600D01*
X113749200Y-96216742D01*
X113844438Y-96121504D01*
X113939676Y-96073885D01*
X114130152Y-96026266D01*
X114273010Y-96026266D01*
X114463486Y-96073885D01*
X114558724Y-96121504D01*
X114653962Y-96216742D01*
X114701581Y-96359600D01*
X114701581Y-96597695D01*
X113701581Y-95692933D02*
X113701581Y-95073885D01*
X114082533Y-95407219D01*
X114082533Y-95264361D01*
X114130152Y-95169123D01*
X114177771Y-95121504D01*
X114273010Y-95073885D01*
X114511105Y-95073885D01*
X114606343Y-95121504D01*
X114653962Y-95169123D01*
X114701581Y-95264361D01*
X114701581Y-95550076D01*
X114653962Y-95645314D01*
X114606343Y-95692933D01*
D14*
X178548553Y-97914590D02*
X178548553Y-97414590D01*
X178667600Y-97414590D01*
X178739029Y-97438400D01*
X178786648Y-97486019D01*
X178810457Y-97533638D01*
X178834267Y-97628876D01*
X178834267Y-97700305D01*
X178810457Y-97795543D01*
X178786648Y-97843162D01*
X178739029Y-97890781D01*
X178667600Y-97914590D01*
X178548553Y-97914590D01*
X179262838Y-97581257D02*
X179262838Y-97914590D01*
X179143791Y-97390781D02*
X179024743Y-97747924D01*
X179334267Y-97747924D01*
D10*
X143362371Y-95245133D02*
X143362371Y-95578467D01*
X143886181Y-95578467D02*
X142886181Y-95578467D01*
X142886181Y-95102276D01*
X143362371Y-94387990D02*
X143409990Y-94245133D01*
X143457610Y-94197514D01*
X143552848Y-94149895D01*
X143695705Y-94149895D01*
X143790943Y-94197514D01*
X143838562Y-94245133D01*
X143886181Y-94340371D01*
X143886181Y-94721324D01*
X142886181Y-94721324D01*
X142886181Y-94387990D01*
X142933800Y-94292752D01*
X142981419Y-94245133D01*
X143076657Y-94197514D01*
X143171895Y-94197514D01*
X143267133Y-94245133D01*
X143314752Y-94292752D01*
X143362371Y-94387990D01*
X143362371Y-94721324D01*
X143219514Y-93292752D02*
X143886181Y-93292752D01*
X142838562Y-93530848D02*
X143552848Y-93768943D01*
X143552848Y-93149895D01*
X145775371Y-105405133D02*
X145775371Y-105738467D01*
X146299181Y-105738467D02*
X145299181Y-105738467D01*
X145299181Y-105262276D01*
X145775371Y-104547990D02*
X145822990Y-104405133D01*
X145870610Y-104357514D01*
X145965848Y-104309895D01*
X146108705Y-104309895D01*
X146203943Y-104357514D01*
X146251562Y-104405133D01*
X146299181Y-104500371D01*
X146299181Y-104881324D01*
X145299181Y-104881324D01*
X145299181Y-104547990D01*
X145346800Y-104452752D01*
X145394419Y-104405133D01*
X145489657Y-104357514D01*
X145584895Y-104357514D01*
X145680133Y-104405133D01*
X145727752Y-104452752D01*
X145775371Y-104547990D01*
X145775371Y-104881324D01*
X145299181Y-103405133D02*
X145299181Y-103881324D01*
X145775371Y-103928943D01*
X145727752Y-103881324D01*
X145680133Y-103786086D01*
X145680133Y-103547990D01*
X145727752Y-103452752D01*
X145775371Y-103405133D01*
X145870610Y-103357514D01*
X146108705Y-103357514D01*
X146203943Y-103405133D01*
X146251562Y-103452752D01*
X146299181Y-103547990D01*
X146299181Y-103786086D01*
X146251562Y-103881324D01*
X146203943Y-103928943D01*
X143489467Y-106913371D02*
X143156133Y-106913371D01*
X143156133Y-107437181D02*
X143156133Y-106437181D01*
X143632324Y-106437181D01*
X144346610Y-106913371D02*
X144489467Y-106960990D01*
X144537086Y-107008610D01*
X144584705Y-107103848D01*
X144584705Y-107246705D01*
X144537086Y-107341943D01*
X144489467Y-107389562D01*
X144394229Y-107437181D01*
X144013276Y-107437181D01*
X144013276Y-106437181D01*
X144346610Y-106437181D01*
X144441848Y-106484800D01*
X144489467Y-106532419D01*
X144537086Y-106627657D01*
X144537086Y-106722895D01*
X144489467Y-106818133D01*
X144441848Y-106865752D01*
X144346610Y-106913371D01*
X144013276Y-106913371D01*
X144918038Y-106437181D02*
X145584705Y-106437181D01*
X145156133Y-107437181D01*
X181430705Y-118486181D02*
X181430705Y-117486181D01*
X182002134Y-118486181D02*
X181573562Y-117914752D01*
X182002134Y-117486181D02*
X181430705Y-118057610D01*
X182954515Y-118486181D02*
X182383086Y-118486181D01*
X182668800Y-118486181D02*
X182668800Y-117486181D01*
X182573562Y-117629038D01*
X182478324Y-117724276D01*
X182383086Y-117771895D01*
X121423134Y-113279181D02*
X120946943Y-113279181D01*
X120946943Y-112279181D01*
X122280277Y-113279181D02*
X121708848Y-113279181D01*
X121994562Y-113279181D02*
X121994562Y-112279181D01*
X121899324Y-112422038D01*
X121804086Y-112517276D01*
X121708848Y-112564895D01*
X121423134Y-111501181D02*
X120946943Y-111501181D01*
X120946943Y-110501181D01*
X121708848Y-110596419D02*
X121756467Y-110548800D01*
X121851705Y-110501181D01*
X122089801Y-110501181D01*
X122185039Y-110548800D01*
X122232658Y-110596419D01*
X122280277Y-110691657D01*
X122280277Y-110786895D01*
X122232658Y-110929752D01*
X121661229Y-111501181D01*
X122280277Y-111501181D01*
X121473934Y-108630981D02*
X120997743Y-108630981D01*
X120997743Y-107630981D01*
X121712029Y-107630981D02*
X122331077Y-107630981D01*
X121997743Y-108011933D01*
X122140601Y-108011933D01*
X122235839Y-108059552D01*
X122283458Y-108107171D01*
X122331077Y-108202410D01*
X122331077Y-108440505D01*
X122283458Y-108535743D01*
X122235839Y-108583362D01*
X122140601Y-108630981D01*
X121854886Y-108630981D01*
X121759648Y-108583362D01*
X121712029Y-108535743D01*
X147648705Y-82926181D02*
X147648705Y-81926181D01*
X148029658Y-81926181D01*
X148124896Y-81973800D01*
X148172515Y-82021419D01*
X148220134Y-82116657D01*
X148220134Y-82259514D01*
X148172515Y-82354752D01*
X148124896Y-82402371D01*
X148029658Y-82449990D01*
X147648705Y-82449990D01*
X149172515Y-82926181D02*
X148601086Y-82926181D01*
X148886800Y-82926181D02*
X148886800Y-81926181D01*
X148791562Y-82069038D01*
X148696324Y-82164276D01*
X148601086Y-82211895D01*
X180541705Y-108580181D02*
X180541705Y-107580181D01*
X180922658Y-107580181D01*
X181017896Y-107627800D01*
X181065515Y-107675419D01*
X181113134Y-107770657D01*
X181113134Y-107913514D01*
X181065515Y-108008752D01*
X181017896Y-108056371D01*
X180922658Y-108103990D01*
X180541705Y-108103990D01*
X181494086Y-107675419D02*
X181541705Y-107627800D01*
X181636943Y-107580181D01*
X181875039Y-107580181D01*
X181970277Y-107627800D01*
X182017896Y-107675419D01*
X182065515Y-107770657D01*
X182065515Y-107865895D01*
X182017896Y-108008752D01*
X181446467Y-108580181D01*
X182065515Y-108580181D01*
X175969705Y-105278181D02*
X175969705Y-104278181D01*
X176350658Y-104278181D01*
X176445896Y-104325800D01*
X176493515Y-104373419D01*
X176541134Y-104468657D01*
X176541134Y-104611514D01*
X176493515Y-104706752D01*
X176445896Y-104754371D01*
X176350658Y-104801990D01*
X175969705Y-104801990D01*
X177398277Y-104611514D02*
X177398277Y-105278181D01*
X177160181Y-104230562D02*
X176922086Y-104944848D01*
X177541134Y-104944848D01*
X146315134Y-88895181D02*
X145981800Y-88418990D01*
X145743705Y-88895181D02*
X145743705Y-87895181D01*
X146124658Y-87895181D01*
X146219896Y-87942800D01*
X146267515Y-87990419D01*
X146315134Y-88085657D01*
X146315134Y-88228514D01*
X146267515Y-88323752D01*
X146219896Y-88371371D01*
X146124658Y-88418990D01*
X145743705Y-88418990D01*
X147267515Y-88895181D02*
X146696086Y-88895181D01*
X146981800Y-88895181D02*
X146981800Y-87895181D01*
X146886562Y-88038038D01*
X146791324Y-88133276D01*
X146696086Y-88180895D01*
X143394134Y-82926181D02*
X143060800Y-82449990D01*
X142822705Y-82926181D02*
X142822705Y-81926181D01*
X143203658Y-81926181D01*
X143298896Y-81973800D01*
X143346515Y-82021419D01*
X143394134Y-82116657D01*
X143394134Y-82259514D01*
X143346515Y-82354752D01*
X143298896Y-82402371D01*
X143203658Y-82449990D01*
X142822705Y-82449990D01*
X143775086Y-82021419D02*
X143822705Y-81973800D01*
X143917943Y-81926181D01*
X144156039Y-81926181D01*
X144251277Y-81973800D01*
X144298896Y-82021419D01*
X144346515Y-82116657D01*
X144346515Y-82211895D01*
X144298896Y-82354752D01*
X143727467Y-82926181D01*
X144346515Y-82926181D01*
X148220134Y-101595181D02*
X147886800Y-101118990D01*
X147648705Y-101595181D02*
X147648705Y-100595181D01*
X148029658Y-100595181D01*
X148124896Y-100642800D01*
X148172515Y-100690419D01*
X148220134Y-100785657D01*
X148220134Y-100928514D01*
X148172515Y-101023752D01*
X148124896Y-101071371D01*
X148029658Y-101118990D01*
X147648705Y-101118990D01*
X149077277Y-100595181D02*
X148886800Y-100595181D01*
X148791562Y-100642800D01*
X148743943Y-100690419D01*
X148648705Y-100833276D01*
X148601086Y-101023752D01*
X148601086Y-101404705D01*
X148648705Y-101499943D01*
X148696324Y-101547562D01*
X148791562Y-101595181D01*
X148982039Y-101595181D01*
X149077277Y-101547562D01*
X149124896Y-101499943D01*
X149172515Y-101404705D01*
X149172515Y-101166610D01*
X149124896Y-101071371D01*
X149077277Y-101023752D01*
X148982039Y-100976133D01*
X148791562Y-100976133D01*
X148696324Y-101023752D01*
X148648705Y-101071371D01*
X148601086Y-101166610D01*
X143902134Y-99182181D02*
X143568800Y-98705990D01*
X143330705Y-99182181D02*
X143330705Y-98182181D01*
X143711658Y-98182181D01*
X143806896Y-98229800D01*
X143854515Y-98277419D01*
X143902134Y-98372657D01*
X143902134Y-98515514D01*
X143854515Y-98610752D01*
X143806896Y-98658371D01*
X143711658Y-98705990D01*
X143330705Y-98705990D01*
X144235467Y-98182181D02*
X144902134Y-98182181D01*
X144473562Y-99182181D01*
X118152943Y-98039181D02*
X117819609Y-97562990D01*
X117581514Y-98039181D02*
X117581514Y-97039181D01*
X117962467Y-97039181D01*
X118057705Y-97086800D01*
X118105324Y-97134419D01*
X118152943Y-97229657D01*
X118152943Y-97372514D01*
X118105324Y-97467752D01*
X118057705Y-97515371D01*
X117962467Y-97562990D01*
X117581514Y-97562990D01*
X119105324Y-98039181D02*
X118533895Y-98039181D01*
X118819609Y-98039181D02*
X118819609Y-97039181D01*
X118724371Y-97182038D01*
X118629133Y-97277276D01*
X118533895Y-97324895D01*
X119724371Y-97039181D02*
X119819610Y-97039181D01*
X119914848Y-97086800D01*
X119962467Y-97134419D01*
X120010086Y-97229657D01*
X120057705Y-97420133D01*
X120057705Y-97658229D01*
X120010086Y-97848705D01*
X119962467Y-97943943D01*
X119914848Y-97991562D01*
X119819610Y-98039181D01*
X119724371Y-98039181D01*
X119629133Y-97991562D01*
X119581514Y-97943943D01*
X119533895Y-97848705D01*
X119486276Y-97658229D01*
X119486276Y-97420133D01*
X119533895Y-97229657D01*
X119581514Y-97134419D01*
X119629133Y-97086800D01*
X119724371Y-97039181D01*
X147489943Y-95118181D02*
X147156609Y-94641990D01*
X146918514Y-95118181D02*
X146918514Y-94118181D01*
X147299467Y-94118181D01*
X147394705Y-94165800D01*
X147442324Y-94213419D01*
X147489943Y-94308657D01*
X147489943Y-94451514D01*
X147442324Y-94546752D01*
X147394705Y-94594371D01*
X147299467Y-94641990D01*
X146918514Y-94641990D01*
X148442324Y-95118181D02*
X147870895Y-95118181D01*
X148156609Y-95118181D02*
X148156609Y-94118181D01*
X148061371Y-94261038D01*
X147966133Y-94356276D01*
X147870895Y-94403895D01*
X149394705Y-95118181D02*
X148823276Y-95118181D01*
X149108990Y-95118181D02*
X149108990Y-94118181D01*
X149013752Y-94261038D01*
X148918514Y-94356276D01*
X148823276Y-94403895D01*
X178477943Y-116581181D02*
X178144609Y-116104990D01*
X177906514Y-116581181D02*
X177906514Y-115581181D01*
X178287467Y-115581181D01*
X178382705Y-115628800D01*
X178430324Y-115676419D01*
X178477943Y-115771657D01*
X178477943Y-115914514D01*
X178430324Y-116009752D01*
X178382705Y-116057371D01*
X178287467Y-116104990D01*
X177906514Y-116104990D01*
X179430324Y-116581181D02*
X178858895Y-116581181D01*
X179144609Y-116581181D02*
X179144609Y-115581181D01*
X179049371Y-115724038D01*
X178954133Y-115819276D01*
X178858895Y-115866895D01*
X179763657Y-115581181D02*
X180382705Y-115581181D01*
X180049371Y-115962133D01*
X180192229Y-115962133D01*
X180287467Y-116009752D01*
X180335086Y-116057371D01*
X180382705Y-116152610D01*
X180382705Y-116390705D01*
X180335086Y-116485943D01*
X180287467Y-116533562D01*
X180192229Y-116581181D01*
X179906514Y-116581181D01*
X179811276Y-116533562D01*
X179763657Y-116485943D01*
X120184943Y-94483181D02*
X119851609Y-94006990D01*
X119613514Y-94483181D02*
X119613514Y-93483181D01*
X119994467Y-93483181D01*
X120089705Y-93530800D01*
X120137324Y-93578419D01*
X120184943Y-93673657D01*
X120184943Y-93816514D01*
X120137324Y-93911752D01*
X120089705Y-93959371D01*
X119994467Y-94006990D01*
X119613514Y-94006990D01*
X121137324Y-94483181D02*
X120565895Y-94483181D01*
X120851609Y-94483181D02*
X120851609Y-93483181D01*
X120756371Y-93626038D01*
X120661133Y-93721276D01*
X120565895Y-93768895D01*
X121994467Y-93483181D02*
X121803990Y-93483181D01*
X121708752Y-93530800D01*
X121661133Y-93578419D01*
X121565895Y-93721276D01*
X121518276Y-93911752D01*
X121518276Y-94292705D01*
X121565895Y-94387943D01*
X121613514Y-94435562D01*
X121708752Y-94483181D01*
X121899229Y-94483181D01*
X121994467Y-94435562D01*
X122042086Y-94387943D01*
X122089705Y-94292705D01*
X122089705Y-94054610D01*
X122042086Y-93959371D01*
X121994467Y-93911752D01*
X121899229Y-93864133D01*
X121708752Y-93864133D01*
X121613514Y-93911752D01*
X121565895Y-93959371D01*
X121518276Y-94054610D01*
X175336295Y-82002381D02*
X175336295Y-82811905D01*
X175383914Y-82907143D01*
X175431533Y-82954762D01*
X175526771Y-83002381D01*
X175717248Y-83002381D01*
X175812486Y-82954762D01*
X175860105Y-82907143D01*
X175907724Y-82811905D01*
X175907724Y-82002381D01*
X176907724Y-83002381D02*
X176336295Y-83002381D01*
X176622009Y-83002381D02*
X176622009Y-82002381D01*
X176526771Y-82145238D01*
X176431533Y-82240476D01*
X176336295Y-82288095D01*
X175366657Y-84221581D02*
X175366657Y-83221581D01*
X175366657Y-83697771D02*
X175938086Y-83697771D01*
X175938086Y-84221581D02*
X175938086Y-83221581D01*
X176985705Y-84126343D02*
X176938086Y-84173962D01*
X176795229Y-84221581D01*
X176699991Y-84221581D01*
X176557133Y-84173962D01*
X176461895Y-84078724D01*
X176414276Y-83983486D01*
X176366657Y-83793010D01*
X176366657Y-83650152D01*
X176414276Y-83459676D01*
X176461895Y-83364438D01*
X176557133Y-83269200D01*
X176699991Y-83221581D01*
X176795229Y-83221581D01*
X176938086Y-83269200D01*
X176985705Y-83316819D01*
X177414276Y-83840629D02*
X178176181Y-83840629D01*
X178842847Y-83221581D02*
X178938086Y-83221581D01*
X179033324Y-83269200D01*
X179080943Y-83316819D01*
X179128562Y-83412057D01*
X179176181Y-83602533D01*
X179176181Y-83840629D01*
X179128562Y-84031105D01*
X179080943Y-84126343D01*
X179033324Y-84173962D01*
X178938086Y-84221581D01*
X178842847Y-84221581D01*
X178747609Y-84173962D01*
X178699990Y-84126343D01*
X178652371Y-84031105D01*
X178604752Y-83840629D01*
X178604752Y-83602533D01*
X178652371Y-83412057D01*
X178699990Y-83316819D01*
X178747609Y-83269200D01*
X178842847Y-83221581D01*
X180080943Y-83221581D02*
X179604752Y-83221581D01*
X179557133Y-83697771D01*
X179604752Y-83650152D01*
X179699990Y-83602533D01*
X179938086Y-83602533D01*
X180033324Y-83650152D01*
X180080943Y-83697771D01*
X180128562Y-83793010D01*
X180128562Y-84031105D01*
X180080943Y-84126343D01*
X180033324Y-84173962D01*
X179938086Y-84221581D01*
X179699990Y-84221581D01*
X179604752Y-84173962D01*
X179557133Y-84126343D01*
D14*
X174548848Y-105567990D02*
X174548848Y-105972752D01*
X174572657Y-106020371D01*
X174596467Y-106044181D01*
X174644086Y-106067990D01*
X174739324Y-106067990D01*
X174786943Y-106044181D01*
X174810752Y-106020371D01*
X174834562Y-105972752D01*
X174834562Y-105567990D01*
X175025039Y-105567990D02*
X175358372Y-105567990D01*
X175144086Y-106067990D01*
D10*
X151934943Y-98928181D02*
X151601609Y-98451990D01*
X151363514Y-98928181D02*
X151363514Y-97928181D01*
X151744467Y-97928181D01*
X151839705Y-97975800D01*
X151887324Y-98023419D01*
X151934943Y-98118657D01*
X151934943Y-98261514D01*
X151887324Y-98356752D01*
X151839705Y-98404371D01*
X151744467Y-98451990D01*
X151363514Y-98451990D01*
X152315895Y-98023419D02*
X152363514Y-97975800D01*
X152458752Y-97928181D01*
X152696848Y-97928181D01*
X152792086Y-97975800D01*
X152839705Y-98023419D01*
X152887324Y-98118657D01*
X152887324Y-98213895D01*
X152839705Y-98356752D01*
X152268276Y-98928181D01*
X152887324Y-98928181D01*
X153839705Y-98928181D02*
X153268276Y-98928181D01*
X153553990Y-98928181D02*
X153553990Y-97928181D01*
X153458752Y-98071038D01*
X153363514Y-98166276D01*
X153268276Y-98213895D01*
X172873943Y-111564657D02*
X172921562Y-111612276D01*
X172969181Y-111755133D01*
X172969181Y-111850371D01*
X172921562Y-111993229D01*
X172826324Y-112088467D01*
X172731086Y-112136086D01*
X172540610Y-112183705D01*
X172397752Y-112183705D01*
X172207276Y-112136086D01*
X172112038Y-112088467D01*
X172016800Y-111993229D01*
X171969181Y-111850371D01*
X171969181Y-111755133D01*
X172016800Y-111612276D01*
X172064419Y-111564657D01*
X172064419Y-111183705D02*
X172016800Y-111136086D01*
X171969181Y-111040848D01*
X171969181Y-110802752D01*
X172016800Y-110707514D01*
X172064419Y-110659895D01*
X172159657Y-110612276D01*
X172254895Y-110612276D01*
X172397752Y-110659895D01*
X172969181Y-111231324D01*
X172969181Y-110612276D01*
X171969181Y-110278943D02*
X171969181Y-109612276D01*
X172969181Y-110040848D01*
X167936943Y-121184943D02*
X167889324Y-121232562D01*
X167746467Y-121280181D01*
X167651229Y-121280181D01*
X167508371Y-121232562D01*
X167413133Y-121137324D01*
X167365514Y-121042086D01*
X167317895Y-120851610D01*
X167317895Y-120708752D01*
X167365514Y-120518276D01*
X167413133Y-120423038D01*
X167508371Y-120327800D01*
X167651229Y-120280181D01*
X167746467Y-120280181D01*
X167889324Y-120327800D01*
X167936943Y-120375419D01*
X168317895Y-120375419D02*
X168365514Y-120327800D01*
X168460752Y-120280181D01*
X168698848Y-120280181D01*
X168794086Y-120327800D01*
X168841705Y-120375419D01*
X168889324Y-120470657D01*
X168889324Y-120565895D01*
X168841705Y-120708752D01*
X168270276Y-121280181D01*
X168889324Y-121280181D01*
X169365514Y-121280181D02*
X169555990Y-121280181D01*
X169651229Y-121232562D01*
X169698848Y-121184943D01*
X169794086Y-121042086D01*
X169841705Y-120851610D01*
X169841705Y-120470657D01*
X169794086Y-120375419D01*
X169746467Y-120327800D01*
X169651229Y-120280181D01*
X169460752Y-120280181D01*
X169365514Y-120327800D01*
X169317895Y-120375419D01*
X169270276Y-120470657D01*
X169270276Y-120708752D01*
X169317895Y-120803990D01*
X169365514Y-120851610D01*
X169460752Y-120899229D01*
X169651229Y-120899229D01*
X169746467Y-120851610D01*
X169794086Y-120803990D01*
X169841705Y-120708752D01*
X170095943Y-114580943D02*
X170048324Y-114628562D01*
X169905467Y-114676181D01*
X169810229Y-114676181D01*
X169667371Y-114628562D01*
X169572133Y-114533324D01*
X169524514Y-114438086D01*
X169476895Y-114247610D01*
X169476895Y-114104752D01*
X169524514Y-113914276D01*
X169572133Y-113819038D01*
X169667371Y-113723800D01*
X169810229Y-113676181D01*
X169905467Y-113676181D01*
X170048324Y-113723800D01*
X170095943Y-113771419D01*
X170429276Y-113676181D02*
X171048324Y-113676181D01*
X170714990Y-114057133D01*
X170857848Y-114057133D01*
X170953086Y-114104752D01*
X171000705Y-114152371D01*
X171048324Y-114247610D01*
X171048324Y-114485705D01*
X171000705Y-114580943D01*
X170953086Y-114628562D01*
X170857848Y-114676181D01*
X170572133Y-114676181D01*
X170476895Y-114628562D01*
X170429276Y-114580943D01*
X171667371Y-113676181D02*
X171762610Y-113676181D01*
X171857848Y-113723800D01*
X171905467Y-113771419D01*
X171953086Y-113866657D01*
X172000705Y-114057133D01*
X172000705Y-114295229D01*
X171953086Y-114485705D01*
X171905467Y-114580943D01*
X171857848Y-114628562D01*
X171762610Y-114676181D01*
X171667371Y-114676181D01*
X171572133Y-114628562D01*
X171524514Y-114580943D01*
X171476895Y-114485705D01*
X171429276Y-114295229D01*
X171429276Y-114057133D01*
X171476895Y-113866657D01*
X171524514Y-113771419D01*
X171572133Y-113723800D01*
X171667371Y-113676181D01*
X114828581Y-119914895D02*
X113828581Y-119914895D01*
X113828581Y-119676800D01*
X113876200Y-119533942D01*
X113971438Y-119438704D01*
X114066676Y-119391085D01*
X114257152Y-119343466D01*
X114400010Y-119343466D01*
X114590486Y-119391085D01*
X114685724Y-119438704D01*
X114780962Y-119533942D01*
X114828581Y-119676800D01*
X114828581Y-119914895D01*
X114257152Y-118772038D02*
X114209533Y-118867276D01*
X114161914Y-118914895D01*
X114066676Y-118962514D01*
X114019057Y-118962514D01*
X113923819Y-118914895D01*
X113876200Y-118867276D01*
X113828581Y-118772038D01*
X113828581Y-118581561D01*
X113876200Y-118486323D01*
X113923819Y-118438704D01*
X114019057Y-118391085D01*
X114066676Y-118391085D01*
X114161914Y-118438704D01*
X114209533Y-118486323D01*
X114257152Y-118581561D01*
X114257152Y-118772038D01*
X114304771Y-118867276D01*
X114352390Y-118914895D01*
X114447629Y-118962514D01*
X114638105Y-118962514D01*
X114733343Y-118914895D01*
X114780962Y-118867276D01*
X114828581Y-118772038D01*
X114828581Y-118581561D01*
X114780962Y-118486323D01*
X114733343Y-118438704D01*
X114638105Y-118391085D01*
X114447629Y-118391085D01*
X114352390Y-118438704D01*
X114304771Y-118486323D01*
X114257152Y-118581561D01*
X120802562Y-88927133D02*
X120850181Y-88784276D01*
X120850181Y-88546180D01*
X120802562Y-88450942D01*
X120754943Y-88403323D01*
X120659705Y-88355704D01*
X120564467Y-88355704D01*
X120469229Y-88403323D01*
X120421610Y-88450942D01*
X120373990Y-88546180D01*
X120326371Y-88736657D01*
X120278752Y-88831895D01*
X120231133Y-88879514D01*
X120135895Y-88927133D01*
X120040657Y-88927133D01*
X119945419Y-88879514D01*
X119897800Y-88831895D01*
X119850181Y-88736657D01*
X119850181Y-88498561D01*
X119897800Y-88355704D01*
X119850181Y-88022371D02*
X120850181Y-87784276D01*
X120135895Y-87593799D01*
X120850181Y-87403323D01*
X119850181Y-87165228D01*
X120850181Y-86260466D02*
X120850181Y-86831895D01*
X120850181Y-86546181D02*
X119850181Y-86546181D01*
X119993038Y-86641419D01*
X120088276Y-86736657D01*
X120135895Y-86831895D01*
X152482705Y-120026181D02*
X152482705Y-120835705D01*
X152530324Y-120930943D01*
X152577943Y-120978562D01*
X152673181Y-121026181D01*
X152863658Y-121026181D01*
X152958896Y-120978562D01*
X153006515Y-120930943D01*
X153054134Y-120835705D01*
X153054134Y-120026181D01*
X154054134Y-121026181D02*
X153482705Y-121026181D01*
X153768419Y-121026181D02*
X153768419Y-120026181D01*
X153673181Y-120169038D01*
X153577943Y-120264276D01*
X153482705Y-120311895D01*
X154673181Y-120026181D02*
X154768420Y-120026181D01*
X154863658Y-120073800D01*
X154911277Y-120121419D01*
X154958896Y-120216657D01*
X155006515Y-120407133D01*
X155006515Y-120645229D01*
X154958896Y-120835705D01*
X154911277Y-120930943D01*
X154863658Y-120978562D01*
X154768420Y-121026181D01*
X154673181Y-121026181D01*
X154577943Y-120978562D01*
X154530324Y-120930943D01*
X154482705Y-120835705D01*
X154435086Y-120645229D01*
X154435086Y-120407133D01*
X154482705Y-120216657D01*
X154530324Y-120121419D01*
X154577943Y-120073800D01*
X154673181Y-120026181D01*
X169968943Y-102230181D02*
X169635609Y-101753990D01*
X169397514Y-102230181D02*
X169397514Y-101230181D01*
X169778467Y-101230181D01*
X169873705Y-101277800D01*
X169921324Y-101325419D01*
X169968943Y-101420657D01*
X169968943Y-101563514D01*
X169921324Y-101658752D01*
X169873705Y-101706371D01*
X169778467Y-101753990D01*
X169397514Y-101753990D01*
X170349895Y-101325419D02*
X170397514Y-101277800D01*
X170492752Y-101230181D01*
X170730848Y-101230181D01*
X170826086Y-101277800D01*
X170873705Y-101325419D01*
X170921324Y-101420657D01*
X170921324Y-101515895D01*
X170873705Y-101658752D01*
X170302276Y-102230181D01*
X170921324Y-102230181D01*
X171778467Y-101230181D02*
X171587990Y-101230181D01*
X171492752Y-101277800D01*
X171445133Y-101325419D01*
X171349895Y-101468276D01*
X171302276Y-101658752D01*
X171302276Y-102039705D01*
X171349895Y-102134943D01*
X171397514Y-102182562D01*
X171492752Y-102230181D01*
X171683229Y-102230181D01*
X171778467Y-102182562D01*
X171826086Y-102134943D01*
X171873705Y-102039705D01*
X171873705Y-101801610D01*
X171826086Y-101706371D01*
X171778467Y-101658752D01*
X171683229Y-101611133D01*
X171492752Y-101611133D01*
X171397514Y-101658752D01*
X171349895Y-101706371D01*
X171302276Y-101801610D01*
D14*
X172242990Y-107984847D02*
X172647752Y-107984847D01*
X172695371Y-107961038D01*
X172719181Y-107937228D01*
X172742990Y-107889609D01*
X172742990Y-107794371D01*
X172719181Y-107746752D01*
X172695371Y-107722943D01*
X172647752Y-107699133D01*
X172242990Y-107699133D01*
X172742990Y-107199133D02*
X172742990Y-107484847D01*
X172742990Y-107341990D02*
X172242990Y-107341990D01*
X172314419Y-107389609D01*
X172362038Y-107437228D01*
X172385848Y-107484847D01*
X172742990Y-106722943D02*
X172742990Y-107008657D01*
X172742990Y-106865800D02*
X172242990Y-106865800D01*
X172314419Y-106913419D01*
X172362038Y-106961038D01*
X172385848Y-107008657D01*
D10*
X175175943Y-98578943D02*
X175128324Y-98626562D01*
X174985467Y-98674181D01*
X174890229Y-98674181D01*
X174747371Y-98626562D01*
X174652133Y-98531324D01*
X174604514Y-98436086D01*
X174556895Y-98245610D01*
X174556895Y-98102752D01*
X174604514Y-97912276D01*
X174652133Y-97817038D01*
X174747371Y-97721800D01*
X174890229Y-97674181D01*
X174985467Y-97674181D01*
X175128324Y-97721800D01*
X175175943Y-97769419D01*
X175556895Y-97769419D02*
X175604514Y-97721800D01*
X175699752Y-97674181D01*
X175937848Y-97674181D01*
X176033086Y-97721800D01*
X176080705Y-97769419D01*
X176128324Y-97864657D01*
X176128324Y-97959895D01*
X176080705Y-98102752D01*
X175509276Y-98674181D01*
X176128324Y-98674181D01*
X177080705Y-98674181D02*
X176509276Y-98674181D01*
X176794990Y-98674181D02*
X176794990Y-97674181D01*
X176699752Y-97817038D01*
X176604514Y-97912276D01*
X176509276Y-97959895D01*
X143679943Y-111913943D02*
X143632324Y-111961562D01*
X143489467Y-112009181D01*
X143394229Y-112009181D01*
X143251371Y-111961562D01*
X143156133Y-111866324D01*
X143108514Y-111771086D01*
X143060895Y-111580610D01*
X143060895Y-111437752D01*
X143108514Y-111247276D01*
X143156133Y-111152038D01*
X143251371Y-111056800D01*
X143394229Y-111009181D01*
X143489467Y-111009181D01*
X143632324Y-111056800D01*
X143679943Y-111104419D01*
X144013276Y-111009181D02*
X144632324Y-111009181D01*
X144298990Y-111390133D01*
X144441848Y-111390133D01*
X144537086Y-111437752D01*
X144584705Y-111485371D01*
X144632324Y-111580610D01*
X144632324Y-111818705D01*
X144584705Y-111913943D01*
X144537086Y-111961562D01*
X144441848Y-112009181D01*
X144156133Y-112009181D01*
X144060895Y-111961562D01*
X144013276Y-111913943D01*
X144965657Y-111009181D02*
X145584705Y-111009181D01*
X145251371Y-111390133D01*
X145394229Y-111390133D01*
X145489467Y-111437752D01*
X145537086Y-111485371D01*
X145584705Y-111580610D01*
X145584705Y-111818705D01*
X145537086Y-111913943D01*
X145489467Y-111961562D01*
X145394229Y-112009181D01*
X145108514Y-112009181D01*
X145013276Y-111961562D01*
X144965657Y-111913943D01*
D14*
X143188572Y-116231171D02*
X143164762Y-116254981D01*
X143093334Y-116278790D01*
X143045715Y-116278790D01*
X142974286Y-116254981D01*
X142926667Y-116207362D01*
X142902858Y-116159743D01*
X142879048Y-116064505D01*
X142879048Y-115993076D01*
X142902858Y-115897838D01*
X142926667Y-115850219D01*
X142974286Y-115802600D01*
X143045715Y-115778790D01*
X143093334Y-115778790D01*
X143164762Y-115802600D01*
X143188572Y-115826410D01*
X143355239Y-115778790D02*
X143664762Y-115778790D01*
X143498096Y-115969267D01*
X143569524Y-115969267D01*
X143617143Y-115993076D01*
X143640953Y-116016886D01*
X143664762Y-116064505D01*
X143664762Y-116183552D01*
X143640953Y-116231171D01*
X143617143Y-116254981D01*
X143569524Y-116278790D01*
X143426667Y-116278790D01*
X143379048Y-116254981D01*
X143355239Y-116231171D01*
X144093333Y-115945457D02*
X144093333Y-116278790D01*
X143974286Y-115754981D02*
X143855238Y-116112124D01*
X144164762Y-116112124D01*
D10*
X148537705Y-106040181D02*
X148537705Y-105040181D01*
X148918658Y-105040181D01*
X149013896Y-105087800D01*
X149061515Y-105135419D01*
X149109134Y-105230657D01*
X149109134Y-105373514D01*
X149061515Y-105468752D01*
X149013896Y-105516371D01*
X148918658Y-105563990D01*
X148537705Y-105563990D01*
X150013896Y-105040181D02*
X149537705Y-105040181D01*
X149490086Y-105516371D01*
X149537705Y-105468752D01*
X149632943Y-105421133D01*
X149871039Y-105421133D01*
X149966277Y-105468752D01*
X150013896Y-105516371D01*
X150061515Y-105611610D01*
X150061515Y-105849705D01*
X150013896Y-105944943D01*
X149966277Y-105992562D01*
X149871039Y-106040181D01*
X149632943Y-106040181D01*
X149537705Y-105992562D01*
X149490086Y-105944943D01*
X147616943Y-116454181D02*
X147283609Y-115977990D01*
X147045514Y-116454181D02*
X147045514Y-115454181D01*
X147426467Y-115454181D01*
X147521705Y-115501800D01*
X147569324Y-115549419D01*
X147616943Y-115644657D01*
X147616943Y-115787514D01*
X147569324Y-115882752D01*
X147521705Y-115930371D01*
X147426467Y-115977990D01*
X147045514Y-115977990D01*
X147997895Y-115549419D02*
X148045514Y-115501800D01*
X148140752Y-115454181D01*
X148378848Y-115454181D01*
X148474086Y-115501800D01*
X148521705Y-115549419D01*
X148569324Y-115644657D01*
X148569324Y-115739895D01*
X148521705Y-115882752D01*
X147950276Y-116454181D01*
X148569324Y-116454181D01*
X149140752Y-115882752D02*
X149045514Y-115835133D01*
X148997895Y-115787514D01*
X148950276Y-115692276D01*
X148950276Y-115644657D01*
X148997895Y-115549419D01*
X149045514Y-115501800D01*
X149140752Y-115454181D01*
X149331229Y-115454181D01*
X149426467Y-115501800D01*
X149474086Y-115549419D01*
X149521705Y-115644657D01*
X149521705Y-115692276D01*
X149474086Y-115787514D01*
X149426467Y-115835133D01*
X149331229Y-115882752D01*
X149140752Y-115882752D01*
X149045514Y-115930371D01*
X148997895Y-115977990D01*
X148950276Y-116073229D01*
X148950276Y-116263705D01*
X148997895Y-116358943D01*
X149045514Y-116406562D01*
X149140752Y-116454181D01*
X149331229Y-116454181D01*
X149426467Y-116406562D01*
X149474086Y-116358943D01*
X149521705Y-116263705D01*
X149521705Y-116073229D01*
X149474086Y-115977990D01*
X149426467Y-115930371D01*
X149331229Y-115882752D01*
X159231105Y-101747581D02*
X159231105Y-100747581D01*
X159612058Y-100747581D01*
X159707296Y-100795200D01*
X159754915Y-100842819D01*
X159802534Y-100938057D01*
X159802534Y-101080914D01*
X159754915Y-101176152D01*
X159707296Y-101223771D01*
X159612058Y-101271390D01*
X159231105Y-101271390D01*
X160659677Y-100747581D02*
X160469200Y-100747581D01*
X160373962Y-100795200D01*
X160326343Y-100842819D01*
X160231105Y-100985676D01*
X160183486Y-101176152D01*
X160183486Y-101557105D01*
X160231105Y-101652343D01*
X160278724Y-101699962D01*
X160373962Y-101747581D01*
X160564439Y-101747581D01*
X160659677Y-101699962D01*
X160707296Y-101652343D01*
X160754915Y-101557105D01*
X160754915Y-101319010D01*
X160707296Y-101223771D01*
X160659677Y-101176152D01*
X160564439Y-101128533D01*
X160373962Y-101128533D01*
X160278724Y-101176152D01*
X160231105Y-101223771D01*
X160183486Y-101319010D01*
D14*
X118310790Y-107455447D02*
X117810790Y-107455447D01*
X117810790Y-107264971D01*
X117834600Y-107217352D01*
X117858410Y-107193543D01*
X117906029Y-107169733D01*
X117977457Y-107169733D01*
X118025076Y-107193543D01*
X118048886Y-107217352D01*
X118072695Y-107264971D01*
X118072695Y-107455447D01*
X117810790Y-107003066D02*
X117810790Y-106693543D01*
X118001267Y-106860209D01*
X118001267Y-106788781D01*
X118025076Y-106741162D01*
X118048886Y-106717352D01*
X118096505Y-106693543D01*
X118215552Y-106693543D01*
X118263171Y-106717352D01*
X118286981Y-106741162D01*
X118310790Y-106788781D01*
X118310790Y-106931638D01*
X118286981Y-106979257D01*
X118263171Y-107003066D01*
X118109181Y-109837457D02*
X118132990Y-109766028D01*
X118132990Y-109646981D01*
X118109181Y-109599362D01*
X118085371Y-109575552D01*
X118037752Y-109551743D01*
X117990133Y-109551743D01*
X117942514Y-109575552D01*
X117918705Y-109599362D01*
X117894895Y-109646981D01*
X117871086Y-109742219D01*
X117847276Y-109789838D01*
X117823467Y-109813647D01*
X117775848Y-109837457D01*
X117728229Y-109837457D01*
X117680610Y-109813647D01*
X117656800Y-109789838D01*
X117632990Y-109742219D01*
X117632990Y-109623171D01*
X117656800Y-109551743D01*
X118132990Y-109337457D02*
X117632990Y-109337457D01*
X117990133Y-109170791D01*
X117632990Y-109004124D01*
X118132990Y-109004124D01*
X117990133Y-108789838D02*
X117990133Y-108551743D01*
X118132990Y-108837457D02*
X117632990Y-108670790D01*
X118132990Y-108504124D01*
D10*
X127304895Y-120153181D02*
X127304895Y-120962705D01*
X127352514Y-121057943D01*
X127400133Y-121105562D01*
X127495371Y-121153181D01*
X127685848Y-121153181D01*
X127781086Y-121105562D01*
X127828705Y-121057943D01*
X127876324Y-120962705D01*
X127876324Y-120153181D01*
X128828705Y-120153181D02*
X128352514Y-120153181D01*
X128304895Y-120629371D01*
X128352514Y-120581752D01*
X128447752Y-120534133D01*
X128685848Y-120534133D01*
X128781086Y-120581752D01*
X128828705Y-120629371D01*
X128876324Y-120724610D01*
X128876324Y-120962705D01*
X128828705Y-121057943D01*
X128781086Y-121105562D01*
X128685848Y-121153181D01*
X128447752Y-121153181D01*
X128352514Y-121105562D01*
X128304895Y-121057943D01*
X129972181Y-121153181D02*
X129972181Y-120153181D01*
X130210276Y-120153181D01*
X130353134Y-120200800D01*
X130448372Y-120296038D01*
X130495991Y-120391276D01*
X130543610Y-120581752D01*
X130543610Y-120724610D01*
X130495991Y-120915086D01*
X130448372Y-121010324D01*
X130353134Y-121105562D01*
X130210276Y-121153181D01*
X129972181Y-121153181D01*
X131543610Y-121153181D02*
X131210276Y-120676990D01*
X130972181Y-121153181D02*
X130972181Y-120153181D01*
X131353134Y-120153181D01*
X131448372Y-120200800D01*
X131495991Y-120248419D01*
X131543610Y-120343657D01*
X131543610Y-120486514D01*
X131495991Y-120581752D01*
X131448372Y-120629371D01*
X131353134Y-120676990D01*
X130972181Y-120676990D01*
X131924562Y-120867467D02*
X132400753Y-120867467D01*
X131829324Y-121153181D02*
X132162657Y-120153181D01*
X132495991Y-121153181D01*
X132972181Y-120581752D02*
X132876943Y-120534133D01*
X132829324Y-120486514D01*
X132781705Y-120391276D01*
X132781705Y-120343657D01*
X132829324Y-120248419D01*
X132876943Y-120200800D01*
X132972181Y-120153181D01*
X133162658Y-120153181D01*
X133257896Y-120200800D01*
X133305515Y-120248419D01*
X133353134Y-120343657D01*
X133353134Y-120391276D01*
X133305515Y-120486514D01*
X133257896Y-120534133D01*
X133162658Y-120581752D01*
X132972181Y-120581752D01*
X132876943Y-120629371D01*
X132829324Y-120676990D01*
X132781705Y-120772229D01*
X132781705Y-120962705D01*
X132829324Y-121057943D01*
X132876943Y-121105562D01*
X132972181Y-121153181D01*
X133162658Y-121153181D01*
X133257896Y-121105562D01*
X133305515Y-121057943D01*
X133353134Y-120962705D01*
X133353134Y-120772229D01*
X133305515Y-120676990D01*
X133257896Y-120629371D01*
X133162658Y-120581752D01*
X134305515Y-121153181D02*
X133734086Y-121153181D01*
X134019800Y-121153181D02*
X134019800Y-120153181D01*
X133924562Y-120296038D01*
X133829324Y-120391276D01*
X133734086Y-120438895D01*
X134876943Y-120581752D02*
X134781705Y-120534133D01*
X134734086Y-120486514D01*
X134686467Y-120391276D01*
X134686467Y-120343657D01*
X134734086Y-120248419D01*
X134781705Y-120200800D01*
X134876943Y-120153181D01*
X135067420Y-120153181D01*
X135162658Y-120200800D01*
X135210277Y-120248419D01*
X135257896Y-120343657D01*
X135257896Y-120391276D01*
X135210277Y-120486514D01*
X135162658Y-120534133D01*
X135067420Y-120581752D01*
X134876943Y-120581752D01*
X134781705Y-120629371D01*
X134734086Y-120676990D01*
X134686467Y-120772229D01*
X134686467Y-120962705D01*
X134734086Y-121057943D01*
X134781705Y-121105562D01*
X134876943Y-121153181D01*
X135067420Y-121153181D01*
X135162658Y-121105562D01*
X135210277Y-121057943D01*
X135257896Y-120962705D01*
X135257896Y-120772229D01*
X135210277Y-120676990D01*
X135162658Y-120629371D01*
X135067420Y-120581752D01*
X135543610Y-120153181D02*
X135876943Y-121153181D01*
X136210277Y-120153181D01*
%LPC*%
D15*
X145211800Y-94522800D03*
X145211800Y-92522800D03*
X143535400Y-118278400D03*
X143535400Y-120278400D03*
D16*
X146481800Y-117372000D03*
X146481800Y-120372000D03*
D15*
X121526300Y-116906800D03*
X121526300Y-118906800D03*
D17*
X117128800Y-114604800D03*
X115128800Y-114604800D03*
X117128800Y-111937800D03*
X115128800Y-111937800D03*
D15*
X119684800Y-105254300D03*
X119684800Y-103254300D03*
D18*
X115874800Y-100540820D03*
X115874800Y-98442780D03*
X182041800Y-94759780D03*
X182041800Y-96857820D03*
X115874800Y-95587820D03*
X115874800Y-93489780D03*
X182041800Y-92920820D03*
X182041800Y-90822780D03*
D17*
X146275300Y-96824800D03*
X144275300Y-96824800D03*
D15*
X144132300Y-103698800D03*
X144132300Y-105698800D03*
X144132300Y-108143800D03*
X144132300Y-110143800D03*
D19*
X175981800Y-118183300D03*
X178981800Y-118183300D03*
X180481800Y-118183300D03*
D20*
X174531800Y-119483300D03*
X181931800Y-119483300D03*
D21*
X174531800Y-121283300D03*
D20*
X181931800Y-121283300D03*
D22*
X176731800Y-120383300D03*
X179731800Y-120383300D03*
D17*
X121573800Y-114604800D03*
X119573800Y-114604800D03*
D15*
X119684800Y-112810800D03*
X119684800Y-110810800D03*
X119684800Y-109127800D03*
X119684800Y-107127800D03*
D23*
X145846800Y-86283800D03*
D24*
X147846800Y-86283800D03*
X149846800Y-86283800D03*
X145846800Y-84283800D03*
X147846800Y-84283800D03*
X149846800Y-84283800D03*
D25*
X181279800Y-109969300D03*
D26*
X181279800Y-112469300D03*
D27*
X178891760Y-103777200D03*
X178891760Y-103127200D03*
X178891760Y-102477200D03*
X178891760Y-101827200D03*
X178891760Y-101177200D03*
D28*
X178891760Y-104977200D03*
X178891760Y-99977200D03*
D29*
X181591760Y-105977200D03*
X181591760Y-98977200D03*
D30*
X147944800Y-88823800D03*
X149844800Y-88823800D03*
D31*
X143687800Y-83555800D03*
X143687800Y-85455800D03*
X146227800Y-101838800D03*
X146227800Y-99938800D03*
X144068800Y-99938800D03*
X144068800Y-101838800D03*
D30*
X119618800Y-100507800D03*
X117718800Y-100507800D03*
D31*
X148259800Y-96065300D03*
X148259800Y-97965300D03*
D30*
X177022800Y-115874800D03*
X175122800Y-115874800D03*
X119618800Y-95554800D03*
X117718800Y-95554800D03*
D32*
X173498800Y-84442300D03*
X171998800Y-84442300D03*
X170498800Y-84442300D03*
X168998800Y-84442300D03*
X167498800Y-84442300D03*
X165998800Y-84442300D03*
X164498800Y-84442300D03*
X162998800Y-84442300D03*
X161498800Y-84442300D03*
X159998800Y-84442300D03*
X158498800Y-84442300D03*
X156998800Y-84442300D03*
X155498800Y-84442300D03*
X155498800Y-97142300D03*
X156998800Y-97142300D03*
X158498800Y-97142300D03*
X159998800Y-97142300D03*
X161498800Y-97142300D03*
X162998800Y-97142300D03*
X164498800Y-97142300D03*
X165998800Y-97142300D03*
X167498800Y-97142300D03*
X168998800Y-97142300D03*
X170498800Y-97142300D03*
X171998800Y-97142300D03*
X173498800Y-97142300D03*
D33*
X153698800Y-85542300D03*
X153698800Y-87042300D03*
X153698800Y-88542300D03*
X153698800Y-90042300D03*
X153698800Y-91542300D03*
X153698800Y-93042300D03*
X153698800Y-94542300D03*
X153698800Y-96042300D03*
D34*
X173913800Y-113494800D03*
X175183800Y-113494800D03*
X176453800Y-113494800D03*
X177723800Y-113494800D03*
X177723800Y-108094800D03*
X176453800Y-108094800D03*
X175183800Y-108094800D03*
X173913800Y-108094800D03*
D35*
X176406300Y-110207300D03*
X175231300Y-110207300D03*
X176406300Y-111382300D03*
X175231300Y-111382300D03*
D31*
X150228300Y-96065300D03*
X150228300Y-97965300D03*
D36*
X170230800Y-109675800D03*
X170230800Y-112675800D03*
D17*
X171992800Y-119176800D03*
X169992800Y-119176800D03*
D37*
X172619800Y-116890800D03*
X169619800Y-116890800D03*
D18*
X115874800Y-117060980D03*
X115874800Y-119159020D03*
D38*
X118237800Y-84333800D03*
D39*
X115747800Y-85593800D03*
X115747800Y-90093800D03*
D38*
X118237800Y-91343800D03*
D40*
X151714200Y-105054400D03*
X151714200Y-107594400D03*
X151714200Y-110134400D03*
X151714200Y-112674400D03*
X151714200Y-115214400D03*
X151714200Y-117756800D03*
X167182800Y-117782200D03*
X167182800Y-115239800D03*
X167182800Y-112699800D03*
X167182800Y-110159800D03*
X167182800Y-107619800D03*
X167182800Y-105079800D03*
D30*
X169661800Y-104648000D03*
X171561800Y-104648000D03*
D41*
X169661840Y-106842560D03*
X169661840Y-107492800D03*
X169661840Y-108143040D03*
X171561760Y-108143040D03*
X171561760Y-107492800D03*
X171561760Y-106842560D03*
D15*
X175882300Y-102714300D03*
X175882300Y-100714300D03*
D17*
X145602200Y-112776000D03*
X143602200Y-112776000D03*
X145602200Y-114808000D03*
X143602200Y-114808000D03*
D42*
X147599400Y-108152200D03*
X147599400Y-111202200D03*
D43*
X149074400Y-109677200D03*
X146124400Y-109677200D03*
D31*
X147599400Y-114640400D03*
X147599400Y-112740400D03*
D44*
X162179000Y-100533200D03*
D45*
X164719000Y-100533200D03*
X167259000Y-100533200D03*
D46*
X115214400Y-107022900D03*
X115214400Y-104482900D03*
X115214400Y-109562900D03*
D47*
X141338800Y-114619800D03*
X141338800Y-110169800D03*
X141338800Y-105719800D03*
X141338800Y-101269800D03*
X141338800Y-96819800D03*
X141338800Y-92369800D03*
X141338800Y-87919800D03*
X123938800Y-114619800D03*
X123938800Y-110169800D03*
X123938800Y-105719800D03*
X123938800Y-101269800D03*
X123938800Y-96819800D03*
X123938800Y-92369800D03*
X123938800Y-87919800D03*
D48*
X139538800Y-118269800D03*
X134938800Y-118269800D03*
X130338800Y-118269800D03*
X125738800Y-118269800D03*
D49*
X138938800Y-84269800D03*
D50*
X127038800Y-84269800D03*
D51*
X132638800Y-112369800D03*
M02*
