G04 (created by PCBNEW (2013-jul-07)-stable) date 29.11.2015 (нд) 18,27,53 EET*
%MOIN*%
G04 Gerber Fmt 3.4, Leading zero omitted, Abs format*
%FSLAX34Y34*%
G01*
G70*
G90*
G04 APERTURE LIST*
%ADD10C,0.00590551*%
%ADD11C,0.0590551*%
%ADD12R,0.06X0.06*%
%ADD13C,0.06*%
%ADD14R,0.055X0.055*%
%ADD15C,0.055*%
%ADD16C,0.0393701*%
%ADD17C,0.0472441*%
%ADD18C,0.035*%
%ADD19C,0.0708661*%
%ADD20C,0.011811*%
%ADD21C,0.01*%
G04 APERTURE END LIST*
G54D10*
G54D11*
X69094Y-35452D03*
X66338Y-35452D03*
G54D12*
X60968Y-37901D03*
G54D13*
X60968Y-36901D03*
X61968Y-37901D03*
X61968Y-36901D03*
X62968Y-37901D03*
X62968Y-36901D03*
G54D14*
X61248Y-33897D03*
G54D15*
X60248Y-33897D03*
G54D16*
X57795Y-33858D03*
X56614Y-33858D03*
G54D17*
X56102Y-44685D03*
X59685Y-37322D03*
X61102Y-39527D03*
X60472Y-44685D03*
X64251Y-35078D03*
X67677Y-39330D03*
X59055Y-35354D03*
X54212Y-39212D03*
X55748Y-35866D03*
X62519Y-35748D03*
X68149Y-43779D03*
X53700Y-39960D03*
G54D18*
X54527Y-41732D03*
X53700Y-42086D03*
G54D19*
X54724Y-40275D03*
G54D17*
X64133Y-40275D03*
X55472Y-44724D03*
X62007Y-38976D03*
G54D19*
X56653Y-38385D03*
G54D20*
X59685Y-37322D02*
X59645Y-37322D01*
X55748Y-35866D02*
X55708Y-35866D01*
X53818Y-39960D02*
X53700Y-39960D01*
X54055Y-41732D02*
X54527Y-41732D01*
X53700Y-42086D02*
X54055Y-41732D01*
X62322Y-40275D02*
X54724Y-40275D01*
X64133Y-40275D02*
X62322Y-40275D01*
X63397Y-39330D02*
X61968Y-37901D01*
X64448Y-39330D02*
X63397Y-39330D01*
X65118Y-40000D02*
X64448Y-39330D01*
X65118Y-43622D02*
X65118Y-40000D01*
X64842Y-43897D02*
X65118Y-43622D01*
X55708Y-43897D02*
X64842Y-43897D01*
X55472Y-44133D02*
X55708Y-43897D01*
X55472Y-44724D02*
X55472Y-44133D01*
X62007Y-38976D02*
X60000Y-38976D01*
X60000Y-38976D02*
X57283Y-38976D01*
X57283Y-38976D02*
X56692Y-38385D01*
X56692Y-38385D02*
X56653Y-38385D01*
G54D10*
G36*
X69433Y-45232D02*
X66883Y-45232D01*
X66883Y-35344D01*
X66801Y-35144D01*
X66647Y-34990D01*
X66447Y-34907D01*
X66230Y-34907D01*
X66030Y-34990D01*
X65876Y-35143D01*
X65793Y-35343D01*
X65793Y-35560D01*
X65876Y-35761D01*
X66029Y-35914D01*
X66229Y-35997D01*
X66446Y-35998D01*
X66647Y-35915D01*
X66800Y-35762D01*
X66883Y-35561D01*
X66883Y-35344D01*
X66883Y-45232D01*
X65427Y-45232D01*
X65427Y-43622D01*
X65427Y-40000D01*
X65403Y-39881D01*
X65403Y-39881D01*
X65336Y-39781D01*
X64667Y-39112D01*
X64567Y-39045D01*
X64448Y-39021D01*
X63525Y-39021D01*
X63523Y-39019D01*
X63523Y-36983D01*
X63512Y-36764D01*
X63449Y-36613D01*
X63354Y-36586D01*
X63283Y-36657D01*
X63283Y-36515D01*
X63256Y-36420D01*
X63050Y-36346D01*
X62831Y-36357D01*
X62680Y-36420D01*
X62653Y-36515D01*
X62968Y-36830D01*
X63283Y-36515D01*
X63283Y-36657D01*
X63039Y-36901D01*
X63354Y-37216D01*
X63449Y-37189D01*
X63523Y-36983D01*
X63523Y-39019D01*
X62955Y-38451D01*
X63077Y-38451D01*
X63279Y-38368D01*
X63434Y-38213D01*
X63518Y-38011D01*
X63518Y-37792D01*
X63435Y-37590D01*
X63280Y-37435D01*
X63204Y-37404D01*
X63256Y-37382D01*
X63283Y-37287D01*
X62968Y-36972D01*
X62653Y-37287D01*
X62680Y-37382D01*
X62735Y-37402D01*
X62657Y-37435D01*
X62502Y-37589D01*
X62468Y-37671D01*
X62435Y-37590D01*
X62280Y-37435D01*
X62198Y-37401D01*
X62279Y-37368D01*
X62434Y-37213D01*
X62465Y-37137D01*
X62487Y-37189D01*
X62582Y-37216D01*
X62897Y-36901D01*
X62582Y-36586D01*
X62487Y-36613D01*
X62467Y-36669D01*
X62435Y-36590D01*
X62280Y-36435D01*
X62078Y-36351D01*
X61859Y-36351D01*
X61773Y-36387D01*
X61773Y-34123D01*
X61773Y-34010D01*
X61710Y-33947D01*
X61298Y-33947D01*
X61298Y-34360D01*
X61360Y-34422D01*
X61572Y-34422D01*
X61664Y-34384D01*
X61734Y-34314D01*
X61772Y-34222D01*
X61773Y-34123D01*
X61773Y-36387D01*
X61657Y-36435D01*
X61502Y-36589D01*
X61468Y-36671D01*
X61435Y-36590D01*
X61280Y-36435D01*
X61078Y-36351D01*
X60859Y-36351D01*
X60657Y-36435D01*
X60502Y-36589D01*
X60418Y-36791D01*
X60418Y-37010D01*
X60501Y-37212D01*
X60640Y-37351D01*
X60618Y-37351D01*
X60527Y-37389D01*
X60456Y-37459D01*
X60418Y-37551D01*
X60418Y-37651D01*
X60418Y-38251D01*
X60456Y-38343D01*
X60526Y-38413D01*
X60618Y-38451D01*
X60718Y-38451D01*
X61318Y-38451D01*
X61409Y-38413D01*
X61480Y-38343D01*
X61518Y-38251D01*
X61518Y-38229D01*
X61656Y-38367D01*
X61858Y-38451D01*
X62077Y-38451D01*
X62080Y-38450D01*
X62130Y-38500D01*
X62105Y-38490D01*
X61911Y-38490D01*
X61732Y-38563D01*
X61629Y-38667D01*
X60000Y-38667D01*
X57411Y-38667D01*
X57255Y-38511D01*
X57257Y-38506D01*
X57257Y-38266D01*
X57166Y-38043D01*
X56996Y-37873D01*
X56774Y-37781D01*
X56533Y-37781D01*
X56311Y-37873D01*
X56141Y-38043D01*
X56049Y-38265D01*
X56049Y-38505D01*
X56140Y-38727D01*
X56310Y-38897D01*
X56532Y-38990D01*
X56773Y-38990D01*
X56834Y-38964D01*
X57064Y-39194D01*
X57165Y-39261D01*
X57165Y-39261D01*
X57283Y-39285D01*
X60000Y-39285D01*
X61629Y-39285D01*
X61732Y-39388D01*
X61910Y-39462D01*
X62104Y-39462D01*
X62282Y-39388D01*
X62419Y-39252D01*
X62494Y-39073D01*
X62494Y-38880D01*
X62483Y-38853D01*
X63179Y-39549D01*
X63279Y-39616D01*
X63279Y-39616D01*
X63397Y-39639D01*
X64320Y-39639D01*
X64809Y-40128D01*
X64809Y-43494D01*
X64714Y-43588D01*
X64620Y-43588D01*
X64620Y-40179D01*
X64546Y-40000D01*
X64409Y-39863D01*
X64230Y-39789D01*
X64037Y-39789D01*
X63858Y-39863D01*
X63755Y-39966D01*
X62322Y-39966D01*
X55250Y-39966D01*
X55237Y-39933D01*
X55067Y-39763D01*
X54845Y-39671D01*
X54604Y-39671D01*
X54382Y-39762D01*
X54212Y-39932D01*
X54120Y-40154D01*
X54119Y-40395D01*
X54211Y-40617D01*
X54381Y-40787D01*
X54603Y-40879D01*
X54844Y-40880D01*
X55066Y-40788D01*
X55236Y-40618D01*
X55250Y-40584D01*
X62322Y-40584D01*
X63755Y-40584D01*
X63858Y-40687D01*
X64036Y-40761D01*
X64230Y-40761D01*
X64408Y-40688D01*
X64545Y-40551D01*
X64619Y-40372D01*
X64620Y-40179D01*
X64620Y-43588D01*
X55708Y-43588D01*
X55590Y-43612D01*
X55490Y-43679D01*
X55253Y-43915D01*
X55186Y-44015D01*
X55163Y-44133D01*
X55163Y-44345D01*
X55060Y-44448D01*
X54986Y-44627D01*
X54986Y-44820D01*
X55060Y-44999D01*
X55196Y-45136D01*
X55375Y-45210D01*
X55568Y-45210D01*
X55747Y-45136D01*
X55884Y-45000D01*
X55958Y-44821D01*
X55958Y-44628D01*
X55884Y-44449D01*
X55781Y-44345D01*
X55781Y-44261D01*
X55836Y-44206D01*
X64842Y-44206D01*
X64960Y-44183D01*
X64960Y-44183D01*
X65061Y-44116D01*
X65336Y-43840D01*
X65336Y-43840D01*
X65336Y-43840D01*
X65403Y-43740D01*
X65403Y-43740D01*
X65427Y-43622D01*
X65427Y-45232D01*
X54952Y-45232D01*
X54952Y-41648D01*
X54888Y-41491D01*
X54768Y-41372D01*
X54612Y-41307D01*
X54443Y-41307D01*
X54287Y-41371D01*
X54235Y-41423D01*
X54055Y-41423D01*
X53936Y-41446D01*
X53836Y-41513D01*
X53688Y-41661D01*
X53616Y-41661D01*
X53460Y-41726D01*
X53340Y-41845D01*
X53275Y-42001D01*
X53275Y-42170D01*
X53340Y-42327D01*
X53459Y-42446D01*
X53615Y-42511D01*
X53784Y-42511D01*
X53941Y-42447D01*
X54060Y-42327D01*
X54125Y-42171D01*
X54125Y-42098D01*
X54183Y-42041D01*
X54235Y-42041D01*
X54286Y-42092D01*
X54442Y-42157D01*
X54611Y-42157D01*
X54767Y-42092D01*
X54887Y-41973D01*
X54952Y-41817D01*
X54952Y-41648D01*
X54952Y-45232D01*
X53081Y-45232D01*
X53081Y-42627D01*
X47720Y-42627D01*
X47720Y-33586D01*
X56253Y-33586D01*
X56235Y-33604D01*
X56167Y-33768D01*
X56167Y-33946D01*
X56235Y-34111D01*
X56360Y-34236D01*
X56524Y-34305D01*
X56702Y-34305D01*
X56866Y-34237D01*
X56992Y-34111D01*
X57060Y-33947D01*
X57061Y-33769D01*
X56993Y-33605D01*
X56974Y-33586D01*
X57434Y-33586D01*
X57416Y-33604D01*
X57348Y-33768D01*
X57348Y-33946D01*
X57416Y-34111D01*
X57541Y-34236D01*
X57706Y-34305D01*
X57883Y-34305D01*
X58048Y-34237D01*
X58173Y-34111D01*
X58242Y-33947D01*
X58242Y-33769D01*
X58174Y-33605D01*
X58155Y-33586D01*
X59816Y-33586D01*
X59803Y-33599D01*
X59723Y-33792D01*
X59722Y-34001D01*
X59802Y-34194D01*
X59950Y-34342D01*
X60143Y-34422D01*
X60352Y-34422D01*
X60545Y-34342D01*
X60692Y-34195D01*
X60722Y-34122D01*
X60722Y-34123D01*
X60723Y-34222D01*
X60761Y-34314D01*
X60831Y-34384D01*
X60923Y-34422D01*
X61135Y-34422D01*
X61198Y-34360D01*
X61198Y-33947D01*
X61190Y-33947D01*
X61190Y-33847D01*
X61198Y-33847D01*
X61198Y-33839D01*
X61298Y-33839D01*
X61298Y-33847D01*
X61710Y-33847D01*
X61773Y-33785D01*
X61773Y-33672D01*
X61772Y-33586D01*
X69433Y-33586D01*
X69433Y-35020D01*
X69403Y-34990D01*
X69203Y-34907D01*
X68986Y-34907D01*
X68786Y-34990D01*
X68632Y-35143D01*
X68549Y-35343D01*
X68549Y-35560D01*
X68631Y-35761D01*
X68785Y-35914D01*
X68985Y-35997D01*
X69202Y-35998D01*
X69402Y-35915D01*
X69433Y-35885D01*
X69433Y-45232D01*
X69433Y-45232D01*
G37*
G54D21*
X69433Y-45232D02*
X66883Y-45232D01*
X66883Y-35344D01*
X66801Y-35144D01*
X66647Y-34990D01*
X66447Y-34907D01*
X66230Y-34907D01*
X66030Y-34990D01*
X65876Y-35143D01*
X65793Y-35343D01*
X65793Y-35560D01*
X65876Y-35761D01*
X66029Y-35914D01*
X66229Y-35997D01*
X66446Y-35998D01*
X66647Y-35915D01*
X66800Y-35762D01*
X66883Y-35561D01*
X66883Y-35344D01*
X66883Y-45232D01*
X65427Y-45232D01*
X65427Y-43622D01*
X65427Y-40000D01*
X65403Y-39881D01*
X65403Y-39881D01*
X65336Y-39781D01*
X64667Y-39112D01*
X64567Y-39045D01*
X64448Y-39021D01*
X63525Y-39021D01*
X63523Y-39019D01*
X63523Y-36983D01*
X63512Y-36764D01*
X63449Y-36613D01*
X63354Y-36586D01*
X63283Y-36657D01*
X63283Y-36515D01*
X63256Y-36420D01*
X63050Y-36346D01*
X62831Y-36357D01*
X62680Y-36420D01*
X62653Y-36515D01*
X62968Y-36830D01*
X63283Y-36515D01*
X63283Y-36657D01*
X63039Y-36901D01*
X63354Y-37216D01*
X63449Y-37189D01*
X63523Y-36983D01*
X63523Y-39019D01*
X62955Y-38451D01*
X63077Y-38451D01*
X63279Y-38368D01*
X63434Y-38213D01*
X63518Y-38011D01*
X63518Y-37792D01*
X63435Y-37590D01*
X63280Y-37435D01*
X63204Y-37404D01*
X63256Y-37382D01*
X63283Y-37287D01*
X62968Y-36972D01*
X62653Y-37287D01*
X62680Y-37382D01*
X62735Y-37402D01*
X62657Y-37435D01*
X62502Y-37589D01*
X62468Y-37671D01*
X62435Y-37590D01*
X62280Y-37435D01*
X62198Y-37401D01*
X62279Y-37368D01*
X62434Y-37213D01*
X62465Y-37137D01*
X62487Y-37189D01*
X62582Y-37216D01*
X62897Y-36901D01*
X62582Y-36586D01*
X62487Y-36613D01*
X62467Y-36669D01*
X62435Y-36590D01*
X62280Y-36435D01*
X62078Y-36351D01*
X61859Y-36351D01*
X61773Y-36387D01*
X61773Y-34123D01*
X61773Y-34010D01*
X61710Y-33947D01*
X61298Y-33947D01*
X61298Y-34360D01*
X61360Y-34422D01*
X61572Y-34422D01*
X61664Y-34384D01*
X61734Y-34314D01*
X61772Y-34222D01*
X61773Y-34123D01*
X61773Y-36387D01*
X61657Y-36435D01*
X61502Y-36589D01*
X61468Y-36671D01*
X61435Y-36590D01*
X61280Y-36435D01*
X61078Y-36351D01*
X60859Y-36351D01*
X60657Y-36435D01*
X60502Y-36589D01*
X60418Y-36791D01*
X60418Y-37010D01*
X60501Y-37212D01*
X60640Y-37351D01*
X60618Y-37351D01*
X60527Y-37389D01*
X60456Y-37459D01*
X60418Y-37551D01*
X60418Y-37651D01*
X60418Y-38251D01*
X60456Y-38343D01*
X60526Y-38413D01*
X60618Y-38451D01*
X60718Y-38451D01*
X61318Y-38451D01*
X61409Y-38413D01*
X61480Y-38343D01*
X61518Y-38251D01*
X61518Y-38229D01*
X61656Y-38367D01*
X61858Y-38451D01*
X62077Y-38451D01*
X62080Y-38450D01*
X62130Y-38500D01*
X62105Y-38490D01*
X61911Y-38490D01*
X61732Y-38563D01*
X61629Y-38667D01*
X60000Y-38667D01*
X57411Y-38667D01*
X57255Y-38511D01*
X57257Y-38506D01*
X57257Y-38266D01*
X57166Y-38043D01*
X56996Y-37873D01*
X56774Y-37781D01*
X56533Y-37781D01*
X56311Y-37873D01*
X56141Y-38043D01*
X56049Y-38265D01*
X56049Y-38505D01*
X56140Y-38727D01*
X56310Y-38897D01*
X56532Y-38990D01*
X56773Y-38990D01*
X56834Y-38964D01*
X57064Y-39194D01*
X57165Y-39261D01*
X57165Y-39261D01*
X57283Y-39285D01*
X60000Y-39285D01*
X61629Y-39285D01*
X61732Y-39388D01*
X61910Y-39462D01*
X62104Y-39462D01*
X62282Y-39388D01*
X62419Y-39252D01*
X62494Y-39073D01*
X62494Y-38880D01*
X62483Y-38853D01*
X63179Y-39549D01*
X63279Y-39616D01*
X63279Y-39616D01*
X63397Y-39639D01*
X64320Y-39639D01*
X64809Y-40128D01*
X64809Y-43494D01*
X64714Y-43588D01*
X64620Y-43588D01*
X64620Y-40179D01*
X64546Y-40000D01*
X64409Y-39863D01*
X64230Y-39789D01*
X64037Y-39789D01*
X63858Y-39863D01*
X63755Y-39966D01*
X62322Y-39966D01*
X55250Y-39966D01*
X55237Y-39933D01*
X55067Y-39763D01*
X54845Y-39671D01*
X54604Y-39671D01*
X54382Y-39762D01*
X54212Y-39932D01*
X54120Y-40154D01*
X54119Y-40395D01*
X54211Y-40617D01*
X54381Y-40787D01*
X54603Y-40879D01*
X54844Y-40880D01*
X55066Y-40788D01*
X55236Y-40618D01*
X55250Y-40584D01*
X62322Y-40584D01*
X63755Y-40584D01*
X63858Y-40687D01*
X64036Y-40761D01*
X64230Y-40761D01*
X64408Y-40688D01*
X64545Y-40551D01*
X64619Y-40372D01*
X64620Y-40179D01*
X64620Y-43588D01*
X55708Y-43588D01*
X55590Y-43612D01*
X55490Y-43679D01*
X55253Y-43915D01*
X55186Y-44015D01*
X55163Y-44133D01*
X55163Y-44345D01*
X55060Y-44448D01*
X54986Y-44627D01*
X54986Y-44820D01*
X55060Y-44999D01*
X55196Y-45136D01*
X55375Y-45210D01*
X55568Y-45210D01*
X55747Y-45136D01*
X55884Y-45000D01*
X55958Y-44821D01*
X55958Y-44628D01*
X55884Y-44449D01*
X55781Y-44345D01*
X55781Y-44261D01*
X55836Y-44206D01*
X64842Y-44206D01*
X64960Y-44183D01*
X64960Y-44183D01*
X65061Y-44116D01*
X65336Y-43840D01*
X65336Y-43840D01*
X65336Y-43840D01*
X65403Y-43740D01*
X65403Y-43740D01*
X65427Y-43622D01*
X65427Y-45232D01*
X54952Y-45232D01*
X54952Y-41648D01*
X54888Y-41491D01*
X54768Y-41372D01*
X54612Y-41307D01*
X54443Y-41307D01*
X54287Y-41371D01*
X54235Y-41423D01*
X54055Y-41423D01*
X53936Y-41446D01*
X53836Y-41513D01*
X53688Y-41661D01*
X53616Y-41661D01*
X53460Y-41726D01*
X53340Y-41845D01*
X53275Y-42001D01*
X53275Y-42170D01*
X53340Y-42327D01*
X53459Y-42446D01*
X53615Y-42511D01*
X53784Y-42511D01*
X53941Y-42447D01*
X54060Y-42327D01*
X54125Y-42171D01*
X54125Y-42098D01*
X54183Y-42041D01*
X54235Y-42041D01*
X54286Y-42092D01*
X54442Y-42157D01*
X54611Y-42157D01*
X54767Y-42092D01*
X54887Y-41973D01*
X54952Y-41817D01*
X54952Y-41648D01*
X54952Y-45232D01*
X53081Y-45232D01*
X53081Y-42627D01*
X47720Y-42627D01*
X47720Y-33586D01*
X56253Y-33586D01*
X56235Y-33604D01*
X56167Y-33768D01*
X56167Y-33946D01*
X56235Y-34111D01*
X56360Y-34236D01*
X56524Y-34305D01*
X56702Y-34305D01*
X56866Y-34237D01*
X56992Y-34111D01*
X57060Y-33947D01*
X57061Y-33769D01*
X56993Y-33605D01*
X56974Y-33586D01*
X57434Y-33586D01*
X57416Y-33604D01*
X57348Y-33768D01*
X57348Y-33946D01*
X57416Y-34111D01*
X57541Y-34236D01*
X57706Y-34305D01*
X57883Y-34305D01*
X58048Y-34237D01*
X58173Y-34111D01*
X58242Y-33947D01*
X58242Y-33769D01*
X58174Y-33605D01*
X58155Y-33586D01*
X59816Y-33586D01*
X59803Y-33599D01*
X59723Y-33792D01*
X59722Y-34001D01*
X59802Y-34194D01*
X59950Y-34342D01*
X60143Y-34422D01*
X60352Y-34422D01*
X60545Y-34342D01*
X60692Y-34195D01*
X60722Y-34122D01*
X60722Y-34123D01*
X60723Y-34222D01*
X60761Y-34314D01*
X60831Y-34384D01*
X60923Y-34422D01*
X61135Y-34422D01*
X61198Y-34360D01*
X61198Y-33947D01*
X61190Y-33947D01*
X61190Y-33847D01*
X61198Y-33847D01*
X61198Y-33839D01*
X61298Y-33839D01*
X61298Y-33847D01*
X61710Y-33847D01*
X61773Y-33785D01*
X61773Y-33672D01*
X61772Y-33586D01*
X69433Y-33586D01*
X69433Y-35020D01*
X69403Y-34990D01*
X69203Y-34907D01*
X68986Y-34907D01*
X68786Y-34990D01*
X68632Y-35143D01*
X68549Y-35343D01*
X68549Y-35560D01*
X68631Y-35761D01*
X68785Y-35914D01*
X68985Y-35997D01*
X69202Y-35998D01*
X69402Y-35915D01*
X69433Y-35885D01*
X69433Y-45232D01*
M02*
