G04 (created by PCBNEW (2013-jul-07)-stable) date 31.10.2015 (сб) 21,36,55 EET*
%MOIN*%
G04 Gerber Fmt 3.4, Leading zero omitted, Abs format*
%FSLAX34Y34*%
G01*
G70*
G90*
G04 APERTURE LIST*
%ADD10C,0.00590551*%
%ADD11C,0.0590551*%
%ADD12R,0.06X0.06*%
%ADD13C,0.06*%
%ADD14R,0.055X0.055*%
%ADD15C,0.055*%
%ADD16C,0.0393701*%
%ADD17C,0.0472441*%
%ADD18C,0.035*%
%ADD19C,0.0708661*%
%ADD20C,0.011811*%
%ADD21C,0.01*%
G04 APERTURE END LIST*
G54D10*
G54D11*
X62598Y-37972D03*
X59842Y-37972D03*
G54D12*
X54472Y-40421D03*
G54D13*
X54472Y-39421D03*
X55472Y-40421D03*
X55472Y-39421D03*
X56472Y-40421D03*
X56472Y-39421D03*
G54D14*
X54751Y-36417D03*
G54D15*
X53751Y-36417D03*
G54D16*
X51299Y-36377D03*
X50118Y-36377D03*
G54D17*
X49606Y-47204D03*
X53188Y-39842D03*
X54606Y-42047D03*
X53976Y-47204D03*
X57755Y-37598D03*
X61181Y-41850D03*
X52559Y-37874D03*
X47716Y-41732D03*
X49251Y-38385D03*
X56023Y-38267D03*
X61653Y-46299D03*
X47204Y-42480D03*
G54D18*
X48031Y-44251D03*
X47204Y-44606D03*
G54D19*
X48228Y-42795D03*
G54D17*
X57637Y-42795D03*
X48976Y-47244D03*
X55511Y-41496D03*
G54D19*
X50157Y-40905D03*
G54D20*
X53188Y-39842D02*
X53149Y-39842D01*
X49251Y-38385D02*
X49212Y-38385D01*
X47322Y-42480D02*
X47204Y-42480D01*
X47559Y-44251D02*
X48031Y-44251D01*
X47204Y-44606D02*
X47559Y-44251D01*
X55826Y-42795D02*
X48228Y-42795D01*
X57637Y-42795D02*
X55826Y-42795D01*
X56901Y-41850D02*
X55472Y-40421D01*
X57952Y-41850D02*
X56901Y-41850D01*
X58622Y-42519D02*
X57952Y-41850D01*
X58622Y-46141D02*
X58622Y-42519D01*
X58346Y-46417D02*
X58622Y-46141D01*
X49212Y-46417D02*
X58346Y-46417D01*
X48976Y-46653D02*
X49212Y-46417D01*
X48976Y-47244D02*
X48976Y-46653D01*
X55511Y-41496D02*
X53503Y-41496D01*
X53503Y-41496D02*
X50787Y-41496D01*
X50787Y-41496D02*
X50196Y-40905D01*
X50196Y-40905D02*
X50157Y-40905D01*
G54D10*
G36*
X62937Y-47751D02*
X60387Y-47751D01*
X60387Y-37864D01*
X60305Y-37663D01*
X60151Y-37510D01*
X59951Y-37427D01*
X59734Y-37427D01*
X59534Y-37509D01*
X59380Y-37663D01*
X59297Y-37863D01*
X59297Y-38080D01*
X59379Y-38280D01*
X59533Y-38434D01*
X59733Y-38517D01*
X59950Y-38517D01*
X60150Y-38434D01*
X60304Y-38281D01*
X60387Y-38081D01*
X60387Y-37864D01*
X60387Y-47751D01*
X58931Y-47751D01*
X58931Y-46141D01*
X58931Y-42519D01*
X58907Y-42401D01*
X58907Y-42401D01*
X58840Y-42301D01*
X58171Y-41631D01*
X58071Y-41564D01*
X57952Y-41541D01*
X57029Y-41541D01*
X57027Y-41538D01*
X57027Y-39503D01*
X57016Y-39284D01*
X56953Y-39133D01*
X56858Y-39106D01*
X56787Y-39176D01*
X56787Y-39035D01*
X56760Y-38940D01*
X56554Y-38866D01*
X56335Y-38877D01*
X56184Y-38940D01*
X56157Y-39035D01*
X56472Y-39350D01*
X56787Y-39035D01*
X56787Y-39176D01*
X56543Y-39421D01*
X56858Y-39736D01*
X56953Y-39709D01*
X57027Y-39503D01*
X57027Y-41538D01*
X56459Y-40971D01*
X56581Y-40971D01*
X56783Y-40887D01*
X56938Y-40733D01*
X57022Y-40531D01*
X57022Y-40312D01*
X56938Y-40110D01*
X56784Y-39955D01*
X56708Y-39923D01*
X56760Y-39902D01*
X56787Y-39807D01*
X56472Y-39491D01*
X56157Y-39807D01*
X56184Y-39902D01*
X56239Y-39922D01*
X56161Y-39954D01*
X56006Y-40109D01*
X55972Y-40191D01*
X55938Y-40110D01*
X55784Y-39955D01*
X55702Y-39921D01*
X55783Y-39887D01*
X55938Y-39733D01*
X55969Y-39657D01*
X55991Y-39709D01*
X56086Y-39736D01*
X56401Y-39421D01*
X56086Y-39106D01*
X55991Y-39133D01*
X55971Y-39188D01*
X55938Y-39110D01*
X55784Y-38955D01*
X55582Y-38871D01*
X55363Y-38871D01*
X55277Y-38906D01*
X55277Y-36642D01*
X55276Y-36529D01*
X55214Y-36467D01*
X54801Y-36467D01*
X54801Y-36879D01*
X54864Y-36942D01*
X55076Y-36942D01*
X55168Y-36904D01*
X55238Y-36834D01*
X55276Y-36742D01*
X55277Y-36642D01*
X55277Y-38906D01*
X55161Y-38954D01*
X55006Y-39109D01*
X54972Y-39191D01*
X54938Y-39110D01*
X54784Y-38955D01*
X54582Y-38871D01*
X54363Y-38871D01*
X54161Y-38954D01*
X54006Y-39109D01*
X53922Y-39311D01*
X53922Y-39530D01*
X54005Y-39732D01*
X54144Y-39871D01*
X54122Y-39871D01*
X54031Y-39909D01*
X53960Y-39979D01*
X53922Y-40071D01*
X53922Y-40170D01*
X53922Y-40770D01*
X53960Y-40862D01*
X54030Y-40933D01*
X54122Y-40971D01*
X54221Y-40971D01*
X54821Y-40971D01*
X54913Y-40933D01*
X54984Y-40863D01*
X55022Y-40771D01*
X55022Y-40748D01*
X55160Y-40887D01*
X55362Y-40971D01*
X55581Y-40971D01*
X55584Y-40970D01*
X55634Y-41020D01*
X55608Y-41009D01*
X55415Y-41009D01*
X55236Y-41083D01*
X55133Y-41187D01*
X53503Y-41187D01*
X50915Y-41187D01*
X50759Y-41031D01*
X50761Y-41026D01*
X50761Y-40785D01*
X50670Y-40563D01*
X50500Y-40393D01*
X50278Y-40301D01*
X50037Y-40301D01*
X49815Y-40392D01*
X49645Y-40562D01*
X49553Y-40784D01*
X49553Y-41025D01*
X49644Y-41247D01*
X49814Y-41417D01*
X50036Y-41509D01*
X50277Y-41509D01*
X50338Y-41484D01*
X50568Y-41714D01*
X50669Y-41781D01*
X50669Y-41781D01*
X50787Y-41805D01*
X53503Y-41805D01*
X55133Y-41805D01*
X55236Y-41908D01*
X55414Y-41982D01*
X55608Y-41982D01*
X55786Y-41908D01*
X55923Y-41771D01*
X55997Y-41593D01*
X55998Y-41399D01*
X55987Y-41372D01*
X56683Y-42068D01*
X56783Y-42135D01*
X56783Y-42135D01*
X56901Y-42159D01*
X57824Y-42159D01*
X58312Y-42647D01*
X58312Y-46013D01*
X58218Y-46108D01*
X58124Y-46108D01*
X58124Y-42698D01*
X58050Y-42520D01*
X57913Y-42383D01*
X57734Y-42309D01*
X57541Y-42308D01*
X57362Y-42382D01*
X57259Y-42486D01*
X55826Y-42486D01*
X48754Y-42486D01*
X48740Y-42453D01*
X48571Y-42283D01*
X48349Y-42191D01*
X48108Y-42190D01*
X47886Y-42282D01*
X47716Y-42452D01*
X47624Y-42674D01*
X47623Y-42914D01*
X47715Y-43137D01*
X47885Y-43307D01*
X48107Y-43399D01*
X48348Y-43399D01*
X48570Y-43307D01*
X48740Y-43138D01*
X48754Y-43104D01*
X55826Y-43104D01*
X57259Y-43104D01*
X57362Y-43207D01*
X57540Y-43281D01*
X57734Y-43281D01*
X57912Y-43207D01*
X58049Y-43071D01*
X58123Y-42892D01*
X58124Y-42698D01*
X58124Y-46108D01*
X49212Y-46108D01*
X49094Y-46131D01*
X48994Y-46198D01*
X48757Y-46435D01*
X48690Y-46535D01*
X48667Y-46653D01*
X48667Y-46865D01*
X48564Y-46968D01*
X48490Y-47146D01*
X48490Y-47340D01*
X48563Y-47519D01*
X48700Y-47656D01*
X48879Y-47730D01*
X49072Y-47730D01*
X49251Y-47656D01*
X49388Y-47519D01*
X49462Y-47341D01*
X49462Y-47147D01*
X49388Y-46969D01*
X49285Y-46865D01*
X49285Y-46781D01*
X49340Y-46726D01*
X58346Y-46726D01*
X58464Y-46702D01*
X58464Y-46702D01*
X58564Y-46635D01*
X58840Y-46360D01*
X58840Y-46360D01*
X58840Y-46360D01*
X58907Y-46260D01*
X58907Y-46260D01*
X58931Y-46141D01*
X58931Y-47751D01*
X48456Y-47751D01*
X48456Y-44167D01*
X48392Y-44011D01*
X48272Y-43891D01*
X48116Y-43827D01*
X47947Y-43826D01*
X47791Y-43891D01*
X47739Y-43942D01*
X47559Y-43942D01*
X47440Y-43966D01*
X47340Y-44033D01*
X47192Y-44181D01*
X47120Y-44181D01*
X46964Y-44245D01*
X46844Y-44365D01*
X46779Y-44521D01*
X46779Y-44690D01*
X46844Y-44846D01*
X46963Y-44966D01*
X47119Y-45031D01*
X47288Y-45031D01*
X47445Y-44966D01*
X47564Y-44847D01*
X47629Y-44691D01*
X47629Y-44618D01*
X47687Y-44561D01*
X47739Y-44561D01*
X47790Y-44612D01*
X47946Y-44676D01*
X48115Y-44677D01*
X48271Y-44612D01*
X48391Y-44493D01*
X48456Y-44336D01*
X48456Y-44167D01*
X48456Y-47751D01*
X46585Y-47751D01*
X46585Y-45146D01*
X41224Y-45146D01*
X41224Y-36106D01*
X49757Y-36106D01*
X49739Y-36124D01*
X49671Y-36288D01*
X49671Y-36466D01*
X49739Y-36630D01*
X49864Y-36756D01*
X50028Y-36824D01*
X50206Y-36824D01*
X50370Y-36756D01*
X50496Y-36631D01*
X50564Y-36467D01*
X50565Y-36289D01*
X50497Y-36125D01*
X50478Y-36106D01*
X50938Y-36106D01*
X50920Y-36124D01*
X50852Y-36288D01*
X50852Y-36466D01*
X50920Y-36630D01*
X51045Y-36756D01*
X51209Y-36824D01*
X51387Y-36824D01*
X51552Y-36756D01*
X51677Y-36631D01*
X51745Y-36467D01*
X51746Y-36289D01*
X51678Y-36125D01*
X51659Y-36106D01*
X53320Y-36106D01*
X53307Y-36119D01*
X53227Y-36312D01*
X53226Y-36521D01*
X53306Y-36714D01*
X53454Y-36862D01*
X53647Y-36942D01*
X53855Y-36942D01*
X54048Y-36862D01*
X54196Y-36715D01*
X54226Y-36642D01*
X54226Y-36642D01*
X54227Y-36742D01*
X54265Y-36834D01*
X54335Y-36904D01*
X54427Y-36942D01*
X54639Y-36942D01*
X54701Y-36879D01*
X54701Y-36467D01*
X54694Y-36467D01*
X54694Y-36367D01*
X54701Y-36367D01*
X54701Y-36359D01*
X54801Y-36359D01*
X54801Y-36367D01*
X55214Y-36367D01*
X55276Y-36304D01*
X55277Y-36191D01*
X55276Y-36106D01*
X62937Y-36106D01*
X62937Y-37539D01*
X62907Y-37510D01*
X62707Y-37427D01*
X62490Y-37427D01*
X62289Y-37509D01*
X62136Y-37663D01*
X62053Y-37863D01*
X62053Y-38080D01*
X62135Y-38280D01*
X62289Y-38434D01*
X62489Y-38517D01*
X62706Y-38517D01*
X62906Y-38434D01*
X62937Y-38404D01*
X62937Y-47751D01*
X62937Y-47751D01*
G37*
G54D21*
X62937Y-47751D02*
X60387Y-47751D01*
X60387Y-37864D01*
X60305Y-37663D01*
X60151Y-37510D01*
X59951Y-37427D01*
X59734Y-37427D01*
X59534Y-37509D01*
X59380Y-37663D01*
X59297Y-37863D01*
X59297Y-38080D01*
X59379Y-38280D01*
X59533Y-38434D01*
X59733Y-38517D01*
X59950Y-38517D01*
X60150Y-38434D01*
X60304Y-38281D01*
X60387Y-38081D01*
X60387Y-37864D01*
X60387Y-47751D01*
X58931Y-47751D01*
X58931Y-46141D01*
X58931Y-42519D01*
X58907Y-42401D01*
X58907Y-42401D01*
X58840Y-42301D01*
X58171Y-41631D01*
X58071Y-41564D01*
X57952Y-41541D01*
X57029Y-41541D01*
X57027Y-41538D01*
X57027Y-39503D01*
X57016Y-39284D01*
X56953Y-39133D01*
X56858Y-39106D01*
X56787Y-39176D01*
X56787Y-39035D01*
X56760Y-38940D01*
X56554Y-38866D01*
X56335Y-38877D01*
X56184Y-38940D01*
X56157Y-39035D01*
X56472Y-39350D01*
X56787Y-39035D01*
X56787Y-39176D01*
X56543Y-39421D01*
X56858Y-39736D01*
X56953Y-39709D01*
X57027Y-39503D01*
X57027Y-41538D01*
X56459Y-40971D01*
X56581Y-40971D01*
X56783Y-40887D01*
X56938Y-40733D01*
X57022Y-40531D01*
X57022Y-40312D01*
X56938Y-40110D01*
X56784Y-39955D01*
X56708Y-39923D01*
X56760Y-39902D01*
X56787Y-39807D01*
X56472Y-39491D01*
X56157Y-39807D01*
X56184Y-39902D01*
X56239Y-39922D01*
X56161Y-39954D01*
X56006Y-40109D01*
X55972Y-40191D01*
X55938Y-40110D01*
X55784Y-39955D01*
X55702Y-39921D01*
X55783Y-39887D01*
X55938Y-39733D01*
X55969Y-39657D01*
X55991Y-39709D01*
X56086Y-39736D01*
X56401Y-39421D01*
X56086Y-39106D01*
X55991Y-39133D01*
X55971Y-39188D01*
X55938Y-39110D01*
X55784Y-38955D01*
X55582Y-38871D01*
X55363Y-38871D01*
X55277Y-38906D01*
X55277Y-36642D01*
X55276Y-36529D01*
X55214Y-36467D01*
X54801Y-36467D01*
X54801Y-36879D01*
X54864Y-36942D01*
X55076Y-36942D01*
X55168Y-36904D01*
X55238Y-36834D01*
X55276Y-36742D01*
X55277Y-36642D01*
X55277Y-38906D01*
X55161Y-38954D01*
X55006Y-39109D01*
X54972Y-39191D01*
X54938Y-39110D01*
X54784Y-38955D01*
X54582Y-38871D01*
X54363Y-38871D01*
X54161Y-38954D01*
X54006Y-39109D01*
X53922Y-39311D01*
X53922Y-39530D01*
X54005Y-39732D01*
X54144Y-39871D01*
X54122Y-39871D01*
X54031Y-39909D01*
X53960Y-39979D01*
X53922Y-40071D01*
X53922Y-40170D01*
X53922Y-40770D01*
X53960Y-40862D01*
X54030Y-40933D01*
X54122Y-40971D01*
X54221Y-40971D01*
X54821Y-40971D01*
X54913Y-40933D01*
X54984Y-40863D01*
X55022Y-40771D01*
X55022Y-40748D01*
X55160Y-40887D01*
X55362Y-40971D01*
X55581Y-40971D01*
X55584Y-40970D01*
X55634Y-41020D01*
X55608Y-41009D01*
X55415Y-41009D01*
X55236Y-41083D01*
X55133Y-41187D01*
X53503Y-41187D01*
X50915Y-41187D01*
X50759Y-41031D01*
X50761Y-41026D01*
X50761Y-40785D01*
X50670Y-40563D01*
X50500Y-40393D01*
X50278Y-40301D01*
X50037Y-40301D01*
X49815Y-40392D01*
X49645Y-40562D01*
X49553Y-40784D01*
X49553Y-41025D01*
X49644Y-41247D01*
X49814Y-41417D01*
X50036Y-41509D01*
X50277Y-41509D01*
X50338Y-41484D01*
X50568Y-41714D01*
X50669Y-41781D01*
X50669Y-41781D01*
X50787Y-41805D01*
X53503Y-41805D01*
X55133Y-41805D01*
X55236Y-41908D01*
X55414Y-41982D01*
X55608Y-41982D01*
X55786Y-41908D01*
X55923Y-41771D01*
X55997Y-41593D01*
X55998Y-41399D01*
X55987Y-41372D01*
X56683Y-42068D01*
X56783Y-42135D01*
X56783Y-42135D01*
X56901Y-42159D01*
X57824Y-42159D01*
X58312Y-42647D01*
X58312Y-46013D01*
X58218Y-46108D01*
X58124Y-46108D01*
X58124Y-42698D01*
X58050Y-42520D01*
X57913Y-42383D01*
X57734Y-42309D01*
X57541Y-42308D01*
X57362Y-42382D01*
X57259Y-42486D01*
X55826Y-42486D01*
X48754Y-42486D01*
X48740Y-42453D01*
X48571Y-42283D01*
X48349Y-42191D01*
X48108Y-42190D01*
X47886Y-42282D01*
X47716Y-42452D01*
X47624Y-42674D01*
X47623Y-42914D01*
X47715Y-43137D01*
X47885Y-43307D01*
X48107Y-43399D01*
X48348Y-43399D01*
X48570Y-43307D01*
X48740Y-43138D01*
X48754Y-43104D01*
X55826Y-43104D01*
X57259Y-43104D01*
X57362Y-43207D01*
X57540Y-43281D01*
X57734Y-43281D01*
X57912Y-43207D01*
X58049Y-43071D01*
X58123Y-42892D01*
X58124Y-42698D01*
X58124Y-46108D01*
X49212Y-46108D01*
X49094Y-46131D01*
X48994Y-46198D01*
X48757Y-46435D01*
X48690Y-46535D01*
X48667Y-46653D01*
X48667Y-46865D01*
X48564Y-46968D01*
X48490Y-47146D01*
X48490Y-47340D01*
X48563Y-47519D01*
X48700Y-47656D01*
X48879Y-47730D01*
X49072Y-47730D01*
X49251Y-47656D01*
X49388Y-47519D01*
X49462Y-47341D01*
X49462Y-47147D01*
X49388Y-46969D01*
X49285Y-46865D01*
X49285Y-46781D01*
X49340Y-46726D01*
X58346Y-46726D01*
X58464Y-46702D01*
X58464Y-46702D01*
X58564Y-46635D01*
X58840Y-46360D01*
X58840Y-46360D01*
X58840Y-46360D01*
X58907Y-46260D01*
X58907Y-46260D01*
X58931Y-46141D01*
X58931Y-47751D01*
X48456Y-47751D01*
X48456Y-44167D01*
X48392Y-44011D01*
X48272Y-43891D01*
X48116Y-43827D01*
X47947Y-43826D01*
X47791Y-43891D01*
X47739Y-43942D01*
X47559Y-43942D01*
X47440Y-43966D01*
X47340Y-44033D01*
X47192Y-44181D01*
X47120Y-44181D01*
X46964Y-44245D01*
X46844Y-44365D01*
X46779Y-44521D01*
X46779Y-44690D01*
X46844Y-44846D01*
X46963Y-44966D01*
X47119Y-45031D01*
X47288Y-45031D01*
X47445Y-44966D01*
X47564Y-44847D01*
X47629Y-44691D01*
X47629Y-44618D01*
X47687Y-44561D01*
X47739Y-44561D01*
X47790Y-44612D01*
X47946Y-44676D01*
X48115Y-44677D01*
X48271Y-44612D01*
X48391Y-44493D01*
X48456Y-44336D01*
X48456Y-44167D01*
X48456Y-47751D01*
X46585Y-47751D01*
X46585Y-45146D01*
X41224Y-45146D01*
X41224Y-36106D01*
X49757Y-36106D01*
X49739Y-36124D01*
X49671Y-36288D01*
X49671Y-36466D01*
X49739Y-36630D01*
X49864Y-36756D01*
X50028Y-36824D01*
X50206Y-36824D01*
X50370Y-36756D01*
X50496Y-36631D01*
X50564Y-36467D01*
X50565Y-36289D01*
X50497Y-36125D01*
X50478Y-36106D01*
X50938Y-36106D01*
X50920Y-36124D01*
X50852Y-36288D01*
X50852Y-36466D01*
X50920Y-36630D01*
X51045Y-36756D01*
X51209Y-36824D01*
X51387Y-36824D01*
X51552Y-36756D01*
X51677Y-36631D01*
X51745Y-36467D01*
X51746Y-36289D01*
X51678Y-36125D01*
X51659Y-36106D01*
X53320Y-36106D01*
X53307Y-36119D01*
X53227Y-36312D01*
X53226Y-36521D01*
X53306Y-36714D01*
X53454Y-36862D01*
X53647Y-36942D01*
X53855Y-36942D01*
X54048Y-36862D01*
X54196Y-36715D01*
X54226Y-36642D01*
X54226Y-36642D01*
X54227Y-36742D01*
X54265Y-36834D01*
X54335Y-36904D01*
X54427Y-36942D01*
X54639Y-36942D01*
X54701Y-36879D01*
X54701Y-36467D01*
X54694Y-36467D01*
X54694Y-36367D01*
X54701Y-36367D01*
X54701Y-36359D01*
X54801Y-36359D01*
X54801Y-36367D01*
X55214Y-36367D01*
X55276Y-36304D01*
X55277Y-36191D01*
X55276Y-36106D01*
X62937Y-36106D01*
X62937Y-37539D01*
X62907Y-37510D01*
X62707Y-37427D01*
X62490Y-37427D01*
X62289Y-37509D01*
X62136Y-37663D01*
X62053Y-37863D01*
X62053Y-38080D01*
X62135Y-38280D01*
X62289Y-38434D01*
X62489Y-38517D01*
X62706Y-38517D01*
X62906Y-38434D01*
X62937Y-38404D01*
X62937Y-47751D01*
M02*
