M48
;DRILL file {Pcbnew (2013-jul-07)-stable} date 31.10.2015 (сб) 21,31,11 EET
;FORMAT={-:-/ absolute / inch / decimal}
FMAT,2
INCH,TZ
T1C0.014
T2C0.025
T3C0.028
T4C0.032
T5C0.035
T6C0.059
%
G90
G05
M72
T1
X4.7205Y-4.248
X4.7717Y-4.1732
X4.8228Y-4.2795
X4.8976Y-4.7244
X4.9252Y-3.8386
X4.9606Y-4.7205
X5.0157Y-4.0906
X5.2559Y-3.7874
X5.3189Y-3.9843
X5.3976Y-4.7205
X5.4606Y-4.2047
X5.5512Y-4.1496
X5.6024Y-3.8268
X5.7638Y-4.2795
X5.7756Y-3.7598
X6.1181Y-4.185
X6.1654Y-4.6299
T2
X4.7205Y-4.4606
X4.8031Y-4.4252
T3
X5.4472Y-3.9421
X5.4472Y-4.0421
X5.5472Y-3.9421
X5.5472Y-4.0421
X5.6472Y-3.9421
X5.6472Y-4.0421
T4
X5.3752Y-3.6417
X5.4752Y-3.6417
T5
X5.0118Y-3.6378
X5.1299Y-3.6378
T6
X5.9843Y-3.7972
X6.2598Y-3.7972
T0
M30
