M48
;DRILL file {Pcbnew (2013-jul-07)-stable} date 29.11.2015 (нд) 18,27,55 EET
;FORMAT={-:-/ absolute / inch / decimal}
FMAT,2
INCH,TZ
T1C0.014
T2C0.025
T3C0.028
T4C0.032
T5C0.035
T6C0.059
%
G90
G05
M72
T1
X5.3701Y-3.9961
X5.4213Y-3.9213
X5.4724Y-4.0276
X5.5472Y-4.4724
X5.5748Y-3.5866
X5.6102Y-4.4685
X5.6654Y-3.8386
X5.9055Y-3.5354
X5.9685Y-3.7323
X6.0472Y-4.4685
X6.1102Y-3.9528
X6.2008Y-3.8976
X6.252Y-3.5748
X6.4134Y-4.0276
X6.4252Y-3.5079
X6.7677Y-3.9331
X6.815Y-4.378
T2
X5.3701Y-4.2087
X5.4528Y-4.1732
T3
X6.0969Y-3.6902
X6.0969Y-3.7902
X6.1969Y-3.6902
X6.1969Y-3.7902
X6.2969Y-3.6902
X6.2969Y-3.7902
T4
X6.0248Y-3.3898
X6.1248Y-3.3898
T5
X5.6614Y-3.3858
X5.7795Y-3.3858
T6
X6.6339Y-3.5453
X6.9094Y-3.5453
T0
M30
